<?xml version="1.0" standalone="no"?><!DOCTYPE svg PUBLIC "-//W3C//DTD SVG 1.1//EN" "http://www.w3.org/Graphics/SVG/1.1/DTD/svg11.dtd" ><svg xmlns="http://www.w3.org/2000/svg"><metadata></metadata><defs><font id="1.000;KLIM;FoundersGroteskMono-Light" horiz-adv-x="614"><font-face font-family="Copyright Klim Type Foundry" font-weight="300" font-stretch="normal" units-per-em="1000" panose-1="2 6 3 9 4 5 2 4 2 4" ascent="885" descent="-250" x-height="4" bbox="-10 -239 650 860" underline-thickness="0" underline-position="0" unicode-range="U+0000-f6c3" /><missing-glyph horiz-adv-x="614"  /><glyph glyph-name="nonmarkingreturn" unicode="" d="" /><glyph glyph-name=".null" unicode="" d="" /><glyph glyph-name="space" unicode=" " d="" /><glyph glyph-name="exclam" unicode="!" d="M271 450 l0 180 l72 0 l0 -180 l-25 -248 l-22 0 l-25 248 ZM362 0 l-110 0 l0 110 l110 0 l0 -110 Z" /><glyph glyph-name="numbersign" unicode="#" d="M206 214 l166 0 l48 203 l-166 0 l-48 -203 ZM377 0 l-56 0 l40 167 l-166 0 l-40 -167 l-56 0 l40 167 l-109 0 l8 47 l112 0 l48 203 l-125 0 l8 47 l128 0 l40 166 l56 0 l-40 -166 l166 0 l40 166 l56 0 l-40 -166 l109 0 l-8 -47 l-112 0 l-48 -203 l125 0 l-8 -47 l-128 0 l-40 -167 Z" /><glyph glyph-name="dollar" unicode="$" d="M146 467 q0 -42 28.5 -66.5 q28.5 -24.5 103.5 -41.5 l13 -3 l0 234 q-67 -2 -106 -34.5 q-39 -32.5 -39 -88.5 ZM497 166 q0 42 -28.5 68 q-28.5 26 -96.5 42 l-32 7 l0 -243 q71 4 114 38 q43 34 43 88 ZM340 -12 l0 -111 l-49 0 l0 113 q-82 7 -146 48 q-64 41 -88 103 l42 49 q23 -61 74 -100 q51 -39 118 -48 l0 252 l-51 12 q-76 18 -115.5 58.5 q-39.5 40.5 -39.5 102.5 q0 76 58.5 125.5 q58.5 49.5 147.5 49.5 l0 107 l49 0 l0 -110 q66 -8 116.5 -40.5 q50.5 -32.5 75.5 -82.5 l-44 -47 q-18 45 -57 76 q-39 31 -91 41 l0 -241 l50 -11 q88 -20 128 -61 q40 -41 40 -107 q0 -76 -60.5 -124.5 q-60.5 -48.5 -157.5 -53.5 Z" /><glyph glyph-name="percent" unicode="%" d="M159 351 q-55 0 -94.5 42.5 q-39.5 42.5 -39.5 102.5 q0 60 39.5 103 q39.5 43 94.5 43 q55 0 94 -43 q39 -43 39 -103 q0 -60 -39 -102.5 q-39 -42.5 -94 -42.5 ZM97 0 l-54 0 l473 630 l54 0 l-473 -630 ZM159 398 q36 0 61 29 q25 29 25 69 q0 41 -25 70 q-25 29 -61 29 q-36 0 -61.5 -29 q-25.5 -29 -25.5 -70 q0 -40 25.5 -69 q25.5 -29 61.5 -29 ZM454 279 q55 0 94.5 -42.5 q39.5 -42.5 39.5 -102.5 q0 -60 -39.5 -103 q-39.5 -43 -94.5 -43 q-55 0 -94 43 q-39 43 -39 103 q0 60 39 102.5 q39 42.5 94 42.5 ZM454 232 q-36 0 -61 -29 q-25 -29 -25 -69 q0 -41 25 -70 q25 -29 61 -29 q36 0 61.5 29 q25.5 29 25.5 70 q0 40 -25.5 69 q-25.5 29 -61.5 29 Z" /><glyph glyph-name="ampersand" unicode="&amp;" d="M257 592 q-43 0 -68.5 -26.5 q-25.5 -26.5 -25.5 -73.5 q0 -26 12.5 -51.5 q12.5 -25.5 49.5 -68.5 q69 34 94 62.5 q25 28.5 25 71.5 q0 37 -24 61.5 q-24 24.5 -63 24.5 ZM96 160 q0 -53 36.5 -86.5 q36.5 -33.5 94.5 -33.5 q42 0 80 15 q38 15 72 45 q-2 2 -4 4.5 q-2 2.5 -10 11.5 l-165 193 q-59 -33 -81.5 -66.5 q-22.5 -33.5 -22.5 -82.5 ZM540 -8 q-34 0 -62.5 15.5 q-28.5 15.5 -65.5 55.5 q-40 -37 -87 -56 q-47 -19 -98 -19 q-85 0 -138.5 47.5 q-53.5 47.5 -53.5 123.5 q0 57 31.5 100.5 q31.5 43.5 103.5 84.5 q-37 46 -51.5 79.5 q-14.5 33.5 -14.5 68.5 q0 67 42 108.5 q42 41.5 110 41.5 q66 0 104.5 -37 q38.5 -37 38.5 -100 q0 -50 -32.5 -89 q-32.5 -39 -111.5 -80 l163 -194 q28 35 47.5 80.5 q19.5 45.5 29.5 95.5 l52 -5 q-14 -60 -39 -113.5 q-25 -53.5 -58 -95.5 q29 -34 52.5 -47.5 q23.5 -13.5 49.5 -13.5 q18 0 28 1 q10 1 20 4 l0 -42 q-13 -7 -28.5 -10.5 q-15.5 -3.5 -31.5 -3.5 Z" /><glyph glyph-name="quotesingle" unicode="&#39;" d="M334 357 l-55 0 l-10 273 l75 0 l-10 -273 Z" /><glyph glyph-name="parenleft" unicode="(" d="M192 288 q0 105 51 200.5 q51 95.5 148 171.5 l83 0 q-105 -72 -161.5 -168.5 q-56.5 -96.5 -56.5 -203.5 q0 -107 56.5 -203.5 q56.5 -96.5 161.5 -168.5 l-83 0 q-97 76 -148 171.5 q-51 95.5 -51 200.5 Z" /><glyph glyph-name="parenright" unicode=")" d="M422 288 q0 -105 -51 -200.5 q-51 -95.5 -148 -171.5 l-83 0 q105 72 161.5 168.5 q56.5 96.5 56.5 203.5 q0 107 -56.5 203.5 q-56.5 96.5 -161.5 168.5 l83 0 q97 -76 148 -171.5 q51 -95.5 51 -200.5 Z" /><glyph glyph-name="asterisk" unicode="*" d="M271 467 l-126 40 l16 44 l122 -42 l0 133 l47 0 l0 -133 l124 44 l14 -45 l-125 -39 l79 -106 l-39 -27 l-76 105 l-76 -107 l-37 29 l77 104 Z" /><glyph glyph-name="plus" unicode="+" d="M560 338 l0 -52 l-227 0 l0 -227 l-52 0 l0 227 l-227 0 l0 52 l227 0 l0 228 l52 0 l0 -228 l227 0 Z" /><glyph glyph-name="comma" unicode="," d="M303 6 l-51 0 l0 103 l110 0 l0 -128 q0 -61 -39 -94.5 q-39 -33.5 -111 -33.5 l0 52 q49 0 70 18 q21 18 21 57 l0 26 Z" /><glyph glyph-name="hyphen" unicode="-" d="M427 223 l-240 0 l0 61 l240 0 l0 -61 Z" /><glyph glyph-name="period" unicode="." d="M362 0 l-110 0 l0 110 l110 0 l0 -110 Z" /><glyph glyph-name="slash" unicode="/" d="M111 -83 l-68 0 l460 772 l68 0 l-460 -772 Z" /><glyph glyph-name="zero" unicode="0" d="M307 642 q115 0 182.5 -87.5 q67.5 -87.5 67.5 -239.5 q0 -152 -67.5 -239.5 q-67.5 -87.5 -182.5 -87.5 q-115 0 -182.5 87.5 q-67.5 87.5 -67.5 239.5 q0 152 67.5 239.5 q67.5 87.5 182.5 87.5 ZM307 39 q88 0 136 72 q48 72 48 204 q0 132 -48 204 q-48 72 -136 72 q-88 0 -136 -72 q-48 -72 -48 -204 q0 -132 48 -204 q48 -72 136 -72 Z" /><glyph glyph-name="one" unicode="1" d="M552 53 l0 -53 l-464 0 l0 53 l206 0 l0 441 l-181 0 l0 48 l54 0 q82 0 112 18.5 q30 18.5 43 74.5 l35 0 l0 -582 l195 0 Z" /><glyph glyph-name="two" unicode="2" d="M306 165 l-127 -109 l350 0 l0 -56 l-456 0 l0 30 l180 157 q60 53 82 74.5 q22 21.5 39 39.5 q34 39 50 75 q16 36 16 73 q0 65 -38 102.5 q-38 37.5 -106 37.5 q-72 0 -111.5 -42 q-39.5 -42 -39.5 -118 q0 -15 3 -30.5 q3 -15.5 8 -28.5 l-64 4 q-5 14 -7.5 29 q-2.5 15 -2.5 30 q0 96 58 152.5 q58 56.5 156 56.5 q99 0 154.5 -51 q55.5 -51 55.5 -139 q0 -58 -41 -121.5 q-41 -63.5 -159 -165.5 Z" /><glyph glyph-name="three" unicode="3" d="M307 591 q-72 0 -114.5 -43 q-42.5 -43 -46.5 -119 l-60 27 q12 85 71.5 135.5 q59.5 50.5 149.5 50.5 q98 0 154.5 -47 q56.5 -47 56.5 -128 q0 -57 -38 -99 q-38 -42 -94 -50 q62 -5 103 -48.5 q41 -43.5 41 -104.5 q0 -79 -61 -128 q-61 -49 -160 -49 q-102 0 -166.5 50.5 q-64.5 50.5 -74.5 138.5 l60 25 q4 -76 53 -119.5 q49 -43.5 129 -43.5 q73 0 115 34.5 q42 34.5 42 96.5 q0 55 -45 88 q-45 33 -117 33 q-9 0 -18 -0.5 q-9 -0.5 -46 -5.5 l0 65 q27 -4 39 -4.5 q12 -0.5 25 -0.5 q72 0 111 30 q39 30 39 88 q0 60 -39 94 q-39 34 -109 34 Z" /><glyph glyph-name="four" unicode="4" d="M358 630 l78 0 l0 -401 l125 0 l0 -51 l-125 0 l0 -178 l-62 0 l0 178 l-327 0 l0 61 l311 391 ZM374 229 l0 343 l-272 -343 l272 0 Z" /><glyph glyph-name="five" unicode="5" d="M310 -12 q-102 0 -167.5 55.5 q-65.5 55.5 -71.5 145.5 l62 17 q3 -78 50.5 -122.5 q47.5 -44.5 128.5 -44.5 q75 0 119.5 46.5 q44.5 46.5 44.5 123.5 q0 72 -43.5 116.5 q-43.5 44.5 -115.5 44.5 q-47 0 -85 -20.5 q-38 -20.5 -62 -57.5 l-68 14 q14 83 24 173 q10 90 12 151 l361 0 q4 -34 -9.5 -48 q-13.5 -14 -45.5 -14 q-31 0 -116 4.5 q-85 4.5 -142 9.5 q-1 -30 -10.5 -119 q-9.5 -89 -15.5 -114 q27 34 70 54 q43 20 94 20 q98 0 157 -59.5 q59 -59.5 59 -153.5 q0 -97 -64.5 -159.5 q-64.5 -62.5 -165.5 -62.5 Z" /><glyph glyph-name="six" unicode="6" d="M337 642 q79 0 134 -39.5 q55 -39.5 72 -107.5 l-56 -27 q-13 61 -51.5 92.5 q-38.5 31.5 -98.5 31.5 q-100 0 -154.5 -89 q-54.5 -89 -49.5 -238 q16 66 67.5 105.5 q51.5 39.5 126.5 39.5 q96 0 156.5 -58.5 q60.5 -58.5 60.5 -150.5 q0 -95 -61 -154 q-61 -59 -160 -59 q-116 0 -181 82.5 q-65 82.5 -65 229.5 q0 157 69.5 249.5 q69.5 92.5 190.5 92.5 ZM319 355 q-75 0 -119.5 -42.5 q-44.5 -42.5 -44.5 -113.5 q0 -70 47 -114.5 q47 -44.5 121 -44.5 q71 0 115 44 q44 44 44 115 q0 71 -44.5 113.5 q-44.5 42.5 -118.5 42.5 Z" /><glyph glyph-name="seven" unicode="7" d="M461 572 l-387 0 l0 58 l461 0 l0 -31 q-107 -113 -163 -265.5 q-56 -152.5 -58 -333.5 l-68 0 q2 165 59.5 317.5 q57.5 152.5 155.5 254.5 Z" /><glyph glyph-name="eight" unicode="8" d="M539 166 q0 -82 -62.5 -130 q-62.5 -48 -169.5 -48 q-107 0 -169.5 48 q-62.5 48 -62.5 130 q0 57 38 98.5 q38 41.5 95 51.5 q-52 18 -81 57.5 q-29 39.5 -29 93.5 q0 79 58 127 q58 48 151 48 q93 0 151 -48 q58 -48 58 -127 q0 -54 -29 -93.5 q-29 -39.5 -81 -57.5 q57 -10 95 -51.5 q38 -41.5 38 -98.5 ZM161 464 q0 -58 39.5 -91.5 q39.5 -33.5 106.5 -33.5 q67 0 106.5 33.5 q39.5 33.5 39.5 91.5 q0 62 -38.5 96 q-38.5 34 -107.5 34 q-69 0 -107.5 -34 q-38.5 -34 -38.5 -96 ZM142 165 q0 -61 43 -95 q43 -34 122 -34 q79 0 122 34 q43 34 43 95 q0 61 -42 92.5 q-42 31.5 -123 31.5 q-81 0 -123 -31.5 q-42 -31.5 -42 -92.5 Z" /><glyph glyph-name="nine" unicode="9" d="M295 275 q75 0 119.5 42.5 q44.5 42.5 44.5 113.5 q0 70 -47 114.5 q-47 44.5 -121 44.5 q-71 0 -115 -44 q-44 -44 -44 -115 q0 -71 44.5 -113.5 q44.5 -42.5 118.5 -42.5 ZM277 -12 q-79 0 -134 39.5 q-55 39.5 -72 107.5 l56 27 q13 -61 51.5 -92.5 q38.5 -31.5 98.5 -31.5 q100 0 154.5 89 q54.5 89 49.5 238 q-16 -66 -67.5 -105.5 q-51.5 -39.5 -126.5 -39.5 q-96 0 -156.5 58.5 q-60.5 58.5 -60.5 150.5 q0 95 61 154 q61 59 160 59 q116 0 181 -82.5 q65 -82.5 65 -229.5 q0 -157 -69.5 -249.5 q-69.5 -92.5 -190.5 -92.5 Z" /><glyph glyph-name="less" unicode="&lt;" d="M500 59 l-386 220 l0 63 l386 219 l0 -61 l-339 -190 l339 -189 l0 -62 Z" /><glyph glyph-name="equal" unicode="=" d="M560 356 l-507 0 l0 53 l507 0 l0 -53 ZM560 211 l-507 0 l0 53 l507 0 l0 -53 Z" /><glyph glyph-name="greater" unicode="&gt;" d="M114 561 l386 -219 l0 -63 l-386 -220 l0 62 l338 189 l-338 190 l0 61 Z" /><glyph glyph-name="question" unicode="?" d="M378 273 q-27 -19 -38.5 -35 q-11.5 -16 -13.5 -38 l-57 0 q2 37 18.5 62.5 q16.5 25.5 57.5 54.5 q30 21 48.5 35 q18.5 14 25.5 21 q18 19 26.5 39.5 q8.5 20.5 8.5 44.5 q0 61 -38 97.5 q-38 36.5 -104 36.5 q-72 0 -111.5 -42.5 q-39.5 -42.5 -39.5 -119.5 q0 -11 1 -22 q1 -11 3 -21 l-68 4 q-2 11 -2.5 22 q-0.5 11 -0.5 21 q0 94 60 151.5 q60 57.5 158 57.5 q97 0 152.5 -50.5 q55.5 -50.5 55.5 -134.5 q0 -31 -11 -58 q-11 -27 -34 -51 q-14 -14 -32.5 -29 q-18.5 -15 -64.5 -46 ZM351 0 l-110 0 l0 110 l110 0 l0 -110 Z" /><glyph glyph-name="at" unicode="@" d="M451 84 q45 0 71 49.5 q26 49.5 26 139.5 q0 110 -58.5 176 q-58.5 66 -157.5 66 q-119 0 -192.5 -89 q-73.5 -89 -73.5 -231 q0 -126 68 -204 q68 -78 176 -78 q50 0 91 10.5 q41 10.5 82 33.5 l18 -32 q-41 -28 -88 -42 q-47 -14 -104 -14 q-130 0 -211 89 q-81 89 -81 237 q0 160 87.5 262 q87.5 102 227.5 102 q120 0 192.5 -79 q72.5 -79 72.5 -207 q0 -108 -42 -171 q-42 -63 -109 -63 q-33 0 -53.5 18.5 q-20.5 18.5 -22.5 48.5 q-15 -31 -43 -49 q-28 -18 -62 -18 q-52 0 -82 36.5 q-30 36.5 -30 98.5 q0 84 46.5 149 q46.5 65 116.5 65 q32 0 57 -18 q25 -18 34 -47 l13 57 l48 0 l-52 -236 q-6 -31 2.5 -45.5 q8.5 -14.5 32.5 -14.5 ZM271 87 q37 0 67.5 31.5 q30.5 31.5 40.5 83.5 l5 25 q10 51 -8 84 q-18 33 -56 33 q-49 0 -81.5 -51.5 q-32.5 -51.5 -32.5 -119.5 q0 -42 16.5 -64 q16.5 -22 48.5 -22 Z" /><glyph glyph-name="A" unicode="a" d="M306 558 l-4 0 l-100 -302 l205 0 l-101 302 ZM561 0 l-68 0 l-67 201 l-242 0 l-66 -201 l-65 0 l215 630 l78 0 l215 -630 Z" /><glyph glyph-name="B" unicode="b" d="M522 464 q0 -51 -37.5 -89 q-37.5 -38 -95.5 -48 q68 -10 109.5 -51.5 q41.5 -41.5 41.5 -102.5 q0 -83 -58.5 -128 q-58.5 -45 -166.5 -45 l-221 0 l0 630 l213 0 q106 0 160.5 -42.5 q54.5 -42.5 54.5 -123.5 ZM317 575 l-160 0 l0 -222 l160 0 q71 0 107 28 q36 28 36 83 q0 55 -36 83 q-36 28 -107 28 ZM479 176 q0 60 -41 92 q-41 32 -118 32 l-163 0 l0 -245 l163 0 q77 0 118 31 q41 31 41 90 Z" /><glyph glyph-name="C" unicode="c" d="M318 43 q72 0 116 42.5 q44 42.5 59 125.5 l61 -40 q-24 -88 -84.5 -135.5 q-60.5 -47.5 -147.5 -47.5 q-113 0 -188 92.5 q-75 92.5 -75 234.5 q0 143 75.5 235 q75.5 92 190.5 92 q78 0 135 -41 q57 -41 84 -117 l-58 -42 q-18 69 -61 107 q-43 38 -104 38 q-84 0 -139.5 -76 q-55.5 -76 -55.5 -196 q0 -119 55 -195.5 q55 -76.5 137 -76.5 Z" /><glyph glyph-name="D" unicode="d" d="M239 0 l-155 0 l0 630 l155 0 q148 0 233 -84.5 q85 -84.5 85 -230.5 q0 -146 -85 -230.5 q-85 -84.5 -233 -84.5 ZM149 575 l0 -520 l81 0 q126 0 192.5 67 q66.5 67 66.5 193 q0 126 -66.5 193 q-66.5 67 -192.5 67 l-81 0 Z" /><glyph glyph-name="E" unicode="e" d="M189 55 l333 0 l0 -55 l-396 0 l0 630 l387 0 l0 -55 l-324 0 l0 -219 l231 0 l0 -56 l-231 0 l0 -245 Z" /><glyph glyph-name="F" unicode="f" d="M188 300 l0 -300 l-64 0 l0 630 l407 0 l0 -55 l-343 0 l0 -219 l260 0 l0 -56 l-260 0 Z" /><glyph glyph-name="G" unicode="g" d="M309 -12 q-109 0 -180.5 92 q-71.5 92 -71.5 235 q0 143 74.5 235 q74.5 92 188.5 92 q77 0 132.5 -40.5 q55.5 -40.5 82.5 -117.5 l-58 -42 q-18 70 -59.5 107.5 q-41.5 37.5 -101.5 37.5 q-84 0 -138 -75.5 q-54 -75.5 -54 -196.5 q0 -121 52 -196.5 q52 -75.5 133 -75.5 q78 0 124.5 56.5 q46.5 56.5 50.5 153.5 l-188 0 l0 53 l238 0 l0 -306 l-43 0 l-9 124 q-16 -64 -62 -100 q-46 -36 -111 -36 Z" /><glyph glyph-name="H" unicode="h" d="M145 300 l0 -300 l-65 0 l0 630 l65 0 l0 -275 l324 0 l0 275 l65 0 l0 -630 l-65 0 l0 300 l-324 0 Z" /><glyph glyph-name="I" unicode="i" d="M522 55 l0 -55 l-431 0 l0 55 l183 0 l0 520 l-183 0 l0 55 l431 0 l0 -55 l-183 0 l0 -520 l183 0 Z" /><glyph glyph-name="J" unicode="j" d="M444 211 l0 419 l65 0 l0 -417 q0 -105 -55.5 -165 q-55.5 -60 -153.5 -60 q-105 0 -164 70 q-59 70 -48 182 l68 18 q-13 -100 25 -156.5 q38 -56.5 119 -56.5 q71 0 107.5 42 q36.5 42 36.5 124 Z" /><glyph glyph-name="K" unicode="k" d="M309 368 l283 -368 l-78 0 l-250 324 l-108 -116 l0 -208 l-65 0 l0 630 l65 0 l0 -351 l326 351 l77 0 l-250 -262 Z" /><glyph glyph-name="L" unicode="l" d="M130 0 l0 630 l65 0 l0 -575 l330 0 l0 -55 l-395 0 Z" /><glyph glyph-name="M" unicode="m" d="M466 579 l-140 -389 l-33 0 l-148 389 l-4 0 l0 -579 l-61 0 l0 630 l104 0 l127 -338 l3 0 l116 338 l104 0 l0 -630 l-64 0 l0 579 l-4 0 Z" /><glyph glyph-name="N" unicode="n" d="M80 630 l74 0 l320 -521 l0 521 l60 0 l0 -630 l-54 0 l-340 545 l0 -545 l-60 0 l0 630 Z" /><glyph glyph-name="O" unicode="o" d="M307 642 q113 0 184.5 -91.5 q71.5 -91.5 71.5 -235.5 q0 -144 -71.5 -235.5 q-71.5 -91.5 -184.5 -91.5 q-113 0 -184.5 91.5 q-71.5 91.5 -71.5 235.5 q0 144 71.5 235.5 q71.5 91.5 184.5 91.5 ZM307 43 q86 0 137.5 74 q51.5 74 51.5 198 q0 124 -51.5 198 q-51.5 74 -137.5 74 q-86 0 -137.5 -74 q-51.5 -74 -51.5 -198 q0 -124 51.5 -198 q51.5 -74 137.5 -74 Z" /><glyph glyph-name="P" unicode="p" d="M553 446 q0 -87 -63.5 -135.5 q-63.5 -48.5 -176.5 -48.5 l-141 0 l0 -262 l-64 0 l0 630 l205 0 q113 0 176.5 -48.5 q63.5 -48.5 63.5 -135.5 ZM172 575 l0 -258 l141 0 q89 0 132.5 32 q43.5 32 43.5 97 q0 65 -43.5 97 q-43.5 32 -132.5 32 l-141 0 Z" /><glyph glyph-name="Q" unicode="q" d="M401 -165 q-60 0 -95.5 44 q-35.5 44 -26.5 111 q-102 12 -165 101.5 q-63 89.5 -63 223.5 q0 144 71.5 235.5 q71.5 91.5 184.5 91.5 q113 0 184.5 -91.5 q71.5 -91.5 71.5 -235.5 q0 -134 -62.5 -223.5 q-62.5 -89.5 -164.5 -101.5 q-6 -47 11.5 -74 q17.5 -27 54.5 -27 q28 0 49.5 12 q21.5 12 39.5 38 l19 -52 q-17 -24 -46.5 -38 q-29.5 -14 -62.5 -14 ZM307 43 q86 0 137.5 74 q51.5 74 51.5 198 q0 124 -51.5 198 q-51.5 74 -137.5 74 q-86 0 -137.5 -74 q-51.5 -74 -51.5 -198 q0 -124 51.5 -198 q51.5 -74 137.5 -74 Z" /><glyph glyph-name="R" unicode="r" d="M304 575 l-158 0 l0 -233 l150 0 q87 0 128.5 28.5 q41.5 28.5 41.5 88.5 q0 59 -40 87.5 q-40 28.5 -122 28.5 ZM578 7 l0 -7 l-80 0 q-18 5 -30 38 q-12 33 -17 91 q-8 88 -39.5 123.5 q-31.5 35.5 -97.5 35.5 l-168 0 l0 -288 l-64 0 l0 630 l222 0 q111 0 170 -44 q59 -44 59 -127 q0 -56 -43 -96.5 q-43 -40.5 -105 -46.5 q50 -7 80 -44 q30 -37 40 -102 q11 -75 27 -111.5 q16 -36.5 46 -51.5 Z" /><glyph glyph-name="S" unicode="s" d="M316 -12 q-88 0 -160 42.5 q-72 42.5 -97 110.5 l42 51 q25 -69 83.5 -109.5 q58.5 -40.5 131.5 -40.5 q74 0 118.5 33 q44.5 33 44.5 91 q0 43 -27 68.5 q-27 25.5 -92 41.5 l-124 30 q-73 17 -110 57.5 q-37 40.5 -37 103.5 q0 77 56.5 126 q56.5 49 144.5 49 q78 0 138 -34 q60 -34 88 -92 l-44 -49 q-21 55 -70.5 88 q-49.5 33 -111.5 33 q-67 0 -104 -32 q-37 -32 -37 -89 q0 -42 27 -66.5 q27 -24.5 97 -41.5 l106 -25 q84 -20 121.5 -60.5 q37.5 -40.5 37.5 -107.5 q0 -80 -61.5 -129 q-61.5 -49 -160.5 -49 Z" /><glyph glyph-name="T" unicode="t" d="M338 575 l0 -575 l-65 0 l0 575 l-232 0 l0 55 l532 0 l0 -55 l-235 0 Z" /><glyph glyph-name="U" unicode="u" d="M308 -12 q-105 0 -167.5 70.5 q-62.5 70.5 -62.5 194.5 l0 377 l65 0 l0 -377 q0 -101 42.5 -154.5 q42.5 -53.5 122.5 -53.5 q80 0 123 54 q43 54 43 154 l0 377 l63 0 l0 -377 q0 -124 -62.5 -194.5 q-62.5 -70.5 -166.5 -70.5 Z" /><glyph glyph-name="V" unicode="v" d="M561 630 l-215 -630 l-78 0 l-215 630 l70 0 l185 -556 l4 0 l182 556 l67 0 Z" /><glyph glyph-name="W" unicode="w" d="M276 520 l64 0 l110 -448 l4 0 l65 558 l61 0 l-82 -630 l-85 0 l-103 422 l-4 0 l-105 -422 l-85 0 l-82 630 l63 0 l68 -555 l4 0 l107 445 Z" /><glyph glyph-name="X" unicode="x" d="M304 279 l-186 -279 l-70 0 l221 327 l-201 303 l77 0 l163 -249 l166 249 l70 0 l-201 -297 l221 -333 l-77 0 l-183 279 Z" /><glyph glyph-name="Y" unicode="y" d="M113 630 l197 -302 l196 302 l69 0 l-237 -361 l0 -269 l-62 0 l0 269 l-237 361 l74 0 Z" /><glyph glyph-name="Z" unicode="z" d="M514 583 l-361 -528 l372 0 l0 -55 l-451 0 l0 44 l362 531 l-357 0 l0 55 l435 0 l0 -47 Z" /><glyph glyph-name="bracketleft" unicode="[" d="M474 610 l-210 0 l0 -644 l210 0 l0 -50 l-270 0 l0 744 l270 0 l0 -50 Z" /><glyph glyph-name="backslash" unicode="\" d="M111 689 l460 -772 l-68 0 l-460 772 l68 0 Z" /><glyph glyph-name="bracketright" unicode="]" d="M350 -34 l0 644 l-210 0 l0 50 l270 0 l0 -744 l-270 0 l0 50 l210 0 Z" /><glyph glyph-name="asciicircum" unicode="^" d="M133 390 l148 240 l52 0 l148 -240 l-65 0 l-109 186 l-109 -186 l-65 0 Z" /><glyph glyph-name="underscore" unicode="_" d="M478 -111 l-342 0 l0 49 l342 0 l0 -49 Z" /><glyph glyph-name="grave" unicode="`" d="M324 678 l60 -162 l-42 0 l-112 162 l94 0 Z" /><glyph glyph-name="a" unicode="a" d="M304 393 q-50 0 -87.5 -24 q-37.5 -24 -52.5 -64 l-55 25 q25 54 77 85 q52 31 118 31 q72 0 111.5 -31.5 q39.5 -31.5 39.5 -88.5 l0 -225 q0 -26 14 -40.5 q14 -14.5 37 -14.5 q15 0 28.5 5 q13.5 5 23.5 14 l3 -53 q-14 -11 -28.5 -16 q-14.5 -5 -32.5 -5 q-42 0 -71.5 29 q-29.5 29 -31.5 70 q-16 -44 -63 -71.5 q-47 -27.5 -106 -27.5 q-61 0 -99 34.5 q-38 34.5 -38 91.5 q0 51 40.5 83.5 q40.5 32.5 134.5 53.5 l131 28 l0 45 q0 29 -24.5 47.5 q-24.5 18.5 -68.5 18.5 ZM237 43 q62 0 111 40 q49 40 49 90 l0 62 l-121 -27 q-74 -17 -98.5 -36.5 q-24.5 -19.5 -24.5 -52.5 q0 -35 22.5 -55.5 q22.5 -20.5 61.5 -20.5 Z" /><glyph glyph-name="b" unicode="b" d="M343 -12 q-58 0 -100.5 29 q-42.5 29 -59.5 80 l-17 -97 l-44 0 l0 630 l61 0 l0 -295 q18 51 60.5 81 q42.5 30 99.5 30 q92 0 149 -64 q57 -64 57 -165 q0 -101 -57 -165 q-57 -64 -149 -64 ZM330 397 q-64 0 -107 -48 q-43 -48 -43 -122 l0 -20 q0 -74 43 -122 q43 -48 107 -48 q72 0 113.5 48.5 q41.5 48.5 41.5 131.5 q0 83 -41.5 131.5 q-41.5 48.5 -113.5 48.5 Z" /><glyph glyph-name="c" unicode="c" d="M320 41 q50 0 86.5 27 q36.5 27 52.5 76 l48 -35 q-23 -57 -71.5 -89 q-48.5 -32 -115.5 -32 q-97 0 -158.5 64 q-61.5 64 -61.5 165 q0 100 62.5 164.5 q62.5 64.5 160.5 64.5 q62 0 107.5 -28 q45.5 -28 70.5 -80 l-47 -42 q-17 46 -51 71.5 q-34 25.5 -80 25.5 q-72 0 -115.5 -48 q-43.5 -48 -43.5 -128 q0 -80 43 -128 q43 -48 113 -48 Z" /><glyph glyph-name="d" unicode="d" d="M284 37 q64 0 107 48 q43 48 43 122 l0 20 q0 74 -43 122 q-43 48 -107 48 q-72 0 -113.5 -48.5 q-41.5 -48.5 -41.5 -131.5 q0 -83 41.5 -131.5 q41.5 -48.5 113.5 -48.5 ZM492 0 l-61 0 l0 99 q-18 -51 -60.5 -81 q-42.5 -30 -99.5 -30 q-92 0 -149 64 q-57 64 -57 165 q0 101 57 165 q57 64 149 64 q57 0 99.5 -30 q42.5 -30 60.5 -81 l0 295 l61 0 l0 -630 Z" /><glyph glyph-name="e" unicode="e" d="M309 39 q58 0 94.5 25.5 q36.5 25.5 56.5 80.5 l46 -39 q-28 -58 -78.5 -88 q-50.5 -30 -119.5 -30 q-97 0 -158.5 62.5 q-61.5 62.5 -61.5 160.5 q0 102 61.5 168.5 q61.5 66.5 154.5 66.5 q93 0 148.5 -59.5 q55.5 -59.5 55.5 -152.5 l0 -23 l-360 0 q0 -75 46 -123.5 q46 -48.5 115 -48.5 ZM304 394 q-60 0 -102 -37.5 q-42 -37.5 -51 -96.5 l297 0 q-3 59 -42.5 96.5 q-39.5 37.5 -101.5 37.5 Z" /><glyph glyph-name="f" unicode="f" d="M233 0 l0 365 l-159 0 l0 49 l159 0 l0 20 q0 92 55 150 q55 58 143 58 q60 0 104 -26.5 q44 -26.5 62 -71.5 l-55 -22 q-11 34 -39.5 52.5 q-28.5 18.5 -71.5 18.5 q-64 0 -100.5 -43.5 q-36.5 -43.5 -36.5 -117.5 l0 -18 l238 0 l0 -49 l-238 0 l0 -365 l-61 0 Z" /><glyph glyph-name="g" unicode="g" d="M295 196 q50 0 83.5 29 q33.5 29 33.5 73 q0 44 -33.5 73 q-33.5 29 -83.5 29 q-50 0 -83.5 -29 q-33.5 -29 -33.5 -73 q0 -44 33.5 -73 q33.5 -29 83.5 -29 ZM551 -33 q0 -69 -69.5 -109 q-69.5 -40 -181.5 -40 q-105 0 -170 34 q-65 34 -65 93 q0 35 30 62 q30 27 76 32 q-33 9 -50 28 q-17 19 -17 46 q0 25 16 45 q16 20 46 33 q-24 20 -36.5 47.5 q-12.5 27.5 -12.5 59.5 q0 66 49.5 107 q49.5 41 128.5 41 q40 0 73.5 -11 q33.5 -11 57.5 -32 q24 37 62 57 q38 20 78 15 l8 -60 q-31 5 -67 -7.5 q-36 -12.5 -55 -34.5 q11 -16 16 -34.5 q5 -18.5 5 -40.5 q0 -66 -49.5 -107 q-49.5 -41 -128.5 -41 q-27 0 -52 5.5 q-25 5.5 -47 16.5 q-18 -10 -27.5 -22.5 q-9.5 -12.5 -9.5 -27.5 q0 -19 17 -29.5 q17 -10.5 49 -10.5 l166 0 q73 0 116.5 -31.5 q43.5 -31.5 43.5 -83.5 ZM128 -45 q0 -41 46.5 -64.5 q46.5 -23.5 125.5 -23.5 q89 0 140.5 26 q51.5 26 51.5 72 q0 31 -29.5 47.5 q-29.5 16.5 -83.5 16.5 l-138 0 q-48 0 -80.5 -20.5 q-32.5 -20.5 -32.5 -53.5 Z" /><glyph glyph-name="h" unicode="h" d="M321 392 q-61 0 -100.5 -42.5 q-39.5 -42.5 -39.5 -108.5 l0 -241 l-61 0 l0 630 l61 0 l0 -288 q17 46 60 75 q43 29 98 29 q79 0 120.5 -46 q41.5 -46 41.5 -131 l0 -269 l-61 0 l0 265 q0 60 -31.5 93.5 q-31.5 33.5 -87.5 33.5 Z" /><glyph glyph-name="i" unicode="i" d="M372 549 l-97 0 l0 93 l97 0 l0 -93 ZM557 48 l0 -48 l-449 0 l0 48 l191 0 l0 338 l-171 0 l0 48 l232 0 l0 -386 l197 0 Z" /><glyph glyph-name="j" unicode="j" d="M449 549 l-97 0 l0 93 l97 0 l0 -93 ZM252 -182 q-63 0 -113 33 q-50 33 -66 83 l36 53 q25 -60 59 -87 q34 -27 84 -27 q55 0 89.5 36 q34.5 36 34.5 98 l0 379 l-216 0 l0 48 l277 0 l0 -432 q0 -84 -51 -134 q-51 -50 -134 -50 Z" /><glyph glyph-name="k" unicode="k" d="M279 229 l-98 -76 l0 -153 l-61 0 l0 630 l61 0 l0 -416 l283 220 l89 0 l-228 -172 l239 -262 l-78 0 l-207 229 Z" /><glyph glyph-name="l" unicode="l" d="M557 48 l0 -48 l-449 0 l0 48 l191 0 l0 534 l-171 0 l0 48 l232 0 l0 -582 l197 0 Z" /><glyph glyph-name="m" unicode="m" d="M208 393 q-38 0 -61 -41.5 q-23 -41.5 -23 -110.5 l0 -241 l-58 0 l0 434 l58 0 l0 -92 q11 49 40.5 76.5 q29.5 27.5 71.5 27.5 q41 0 67 -27 q26 -27 31 -74 q12 46 42 73.5 q30 27.5 72 27.5 q45 0 72.5 -32.5 q27.5 -32.5 27.5 -86.5 l0 -327 l-58 0 l0 297 q0 50 -17 73 q-17 23 -53 23 q-38 0 -61 -41.5 q-23 -41.5 -23 -110.5 l0 -241 l-58 0 l0 297 q0 50 -17 73 q-17 23 -53 23 Z" /><glyph glyph-name="n" unicode="n" d="M321 392 q-61 0 -100.5 -42.5 q-39.5 -42.5 -39.5 -108.5 l0 -241 l-61 0 l0 434 l61 0 l0 -92 q17 46 60 75 q43 29 98 29 q79 0 120.5 -46 q41.5 -46 41.5 -131 l0 -269 l-61 0 l0 265 q0 60 -31.5 93.5 q-31.5 33.5 -87.5 33.5 Z" /><glyph glyph-name="o" unicode="o" d="M307 446 q95 0 159.5 -65 q64.5 -65 64.5 -164 q0 -99 -64.5 -164 q-64.5 -65 -159.5 -65 q-95 0 -159 65 q-64 65 -64 164 q0 99 64 164 q64 65 159 65 ZM307 394 q-72 0 -115.5 -48.5 q-43.5 -48.5 -43.5 -128.5 q0 -80 43.5 -128.5 q43.5 -48.5 115.5 -48.5 q73 0 116.5 48.5 q43.5 48.5 43.5 128.5 q0 80 -43.5 128.5 q-43.5 48.5 -116.5 48.5 Z" /><glyph glyph-name="p" unicode="p" d="M330 397 q-64 0 -107 -48 q-43 -48 -43 -122 l0 -20 q0 -74 43 -122 q43 -48 107 -48 q72 0 113.5 48.5 q41.5 48.5 41.5 131.5 q0 83 -41.5 131.5 q-41.5 48.5 -113.5 48.5 ZM343 -12 q-57 0 -99.5 30 q-42.5 30 -60.5 81 l0 -269 l-61 0 l0 604 l61 0 l0 -99 q18 51 60.5 81 q42.5 30 99.5 30 q92 0 149 -64 q57 -64 57 -165 q0 -101 -57 -165 q-57 -64 -149 -64 Z" /><glyph glyph-name="q" unicode="q" d="M492 -170 l-61 0 l0 269 q-18 -51 -60.5 -81 q-42.5 -30 -99.5 -30 q-92 0 -149 64 q-57 64 -57 165 q0 101 57 165 q57 64 149 64 q57 0 99.5 -30 q42.5 -30 60.5 -81 l0 99 l61 0 l0 -604 ZM284 37 q64 0 107 48 q43 48 43 122 l0 20 q0 74 -43 122 q-43 48 -107 48 q-72 0 -113.5 -48.5 q-41.5 -48.5 -41.5 -131.5 q0 -83 41.5 -131.5 q41.5 -48.5 113.5 -48.5 Z" /><glyph glyph-name="r" unicode="r" d="M453 285 q0 50 -28.5 78 q-28.5 28 -81.5 28 q-62 0 -110 -58.5 q-48 -58.5 -48 -135.5 l0 -197 l-61 0 l0 434 l61 0 l0 -130 q19 64 65.5 103 q46.5 39 109.5 39 q66 0 109 -42 q43 -42 43 -101 q0 -17 -1.5 -29 q-1.5 -12 -4.5 -20 l-58 -13 q3 6 4 17 q1 11 1 27 Z" /><glyph glyph-name="s" unicode="s" d="M310 -12 q-71 0 -129.5 27 q-58.5 27 -85.5 73 l34 53 q23 -46 72 -73 q49 -27 108 -27 q60 0 91.5 18.5 q31.5 18.5 31.5 53.5 q0 25 -18.5 41 q-18.5 16 -60.5 26 l-107 25 q-65 15 -94 43.5 q-29 28.5 -29 73.5 q0 55 48 89.5 q48 34.5 122 34.5 q63 0 112.5 -24 q49.5 -24 72.5 -66 l-45 -41 q-16 35 -54.5 56.5 q-38.5 21.5 -85.5 21.5 q-48 0 -79 -18.5 q-31 -18.5 -31 -47.5 q0 -26 19 -42.5 q19 -16.5 63 -26.5 l116 -27 q56 -13 84 -42.5 q28 -29.5 28 -73.5 q0 -57 -51 -92 q-51 -35 -132 -35 Z" /><glyph glyph-name="t" unicode="t" d="M40 365 l0 49 l148 0 l0 146 l60 23 l0 -169 l258 0 l0 -49 l-258 0 l0 -188 q0 -61 37 -97.5 q37 -36.5 94 -36.5 q52 0 90.5 29 q38.5 29 61.5 85 l32 -50 q-16 -49 -69.5 -84 q-53.5 -35 -114.5 -35 q-85 0 -138 50 q-53 50 -53 134 l0 193 l-148 0 Z" /><glyph glyph-name="u" unicode="u" d="M293 42 q61 0 100.5 42.5 q39.5 42.5 39.5 108.5 l0 241 l61 0 l0 -434 l-61 0 l0 92 q-17 -46 -60 -75 q-43 -29 -98 -29 q-78 0 -119 45.5 q-41 45.5 -41 131.5 l0 269 l61 0 l0 -265 q0 -60 30.5 -93.5 q30.5 -33.5 86.5 -33.5 Z" /><glyph glyph-name="v" unicode="v" d="M534 434 l-204 -434 l-49 0 l-204 434 l68 0 l161 -355 l4 0 l157 355 l67 0 Z" /><glyph glyph-name="w" unicode="w" d="M275 434 l65 0 l89 -357 l4 0 l86 357 l59 0 l-112 -434 l-62 0 l-95 363 l-4 0 l-94 -363 l-62 0 l-113 434 l61 0 l88 -357 l4 0 l86 357 Z" /><glyph glyph-name="x" unicode="x" d="M306 190 l-170 -190 l-71 0 l206 227 l-186 207 l75 0 l149 -168 l150 168 l71 0 l-186 -205 l206 -229 l-75 0 l-169 190 Z" /><glyph glyph-name="y" unicode="y" d="M181 -130 q27 0 49 21 q22 21 40 64 l20 48 l-208 431 l67 0 l169 -356 l4 0 l146 356 l62 0 l-202 -480 q-30 -71 -66.5 -103.5 q-36.5 -32.5 -84.5 -32.5 q-44 0 -72.5 25.5 q-28.5 25.5 -34.5 69.5 l55 30 q0 -36 14.5 -54.5 q14.5 -18.5 41.5 -18.5 Z" /><glyph glyph-name="z" unicode="z" d="M115 381 l0 53 l385 0 l0 -46 l-319 -335 l336 0 l0 -53 l-411 0 l0 46 l314 335 l-305 0 Z" /><glyph glyph-name="braceleft" unicode="{" d="M165 263 l-55 0 l0 50 l55 0 q28 0 37.5 13.5 q9.5 13.5 9.5 59.5 l0 183 q0 48 19 69.5 q19 21.5 60 21.5 l183 0 l0 -50 l-170 0 q-16 0 -23.5 -9 q-7.5 -9 -7.5 -28 l0 -187 q0 -45 -16 -68 q-16 -23 -50 -30 q34 -7 50 -30 q16 -23 16 -68 l0 -187 q0 -19 7.5 -28 q7.5 -9 23.5 -9 l170 0 l0 -50 l-183 0 q-41 0 -60 21.5 q-19 21.5 -19 69.5 l0 183 q0 46 -9.5 59.5 q-9.5 13.5 -37.5 13.5 Z" /><glyph glyph-name="bar" unicode="|" d="M338 -83 l-62 0 l0 772 l62 0 l0 -772 Z" /><glyph glyph-name="braceright" unicode="}" d="M504 313 l0 -50 l-55 0 q-28 0 -37.5 -13.5 q-9.5 -13.5 -9.5 -59.5 l0 -183 q0 -48 -19 -69.5 q-19 -21.5 -60 -21.5 l-183 0 l0 50 l170 0 q16 0 23.5 9 q7.5 9 7.5 28 l0 187 q0 45 16 68 q16 23 50 30 q-34 7 -50 30 q-16 23 -16 68 l0 187 q0 19 -7.5 28 q-7.5 9 -23.5 9 l-170 0 l0 50 l183 0 q41 0 60 -21.5 q19 -21.5 19 -69.5 l0 -183 q0 -46 9.5 -59.5 q9.5 -13.5 37.5 -13.5 l55 0 Z" /><glyph glyph-name="asciitilde" unicode="~" d="M388 205 q-20 0 -40 10 q-20 10 -55 40 q-27 24 -41 31.5 q-14 7.5 -26 7.5 q-27 0 -40.5 -20.5 q-13.5 -20.5 -15.5 -64.5 l-47 0 q0 67 26.5 103 q26.5 36 76.5 36 q20 0 40 -10 q20 -10 55 -40 q27 -24 41 -31.5 q14 -7.5 26 -7.5 q27 0 40.5 20.5 q13.5 20.5 15.5 64.5 l47 0 q0 -67 -26.5 -103 q-26.5 -36 -76.5 -36 Z" /><glyph glyph-name="nonbreakingspace" unicode=" " d="" /><glyph glyph-name="exclamdown" unicode="¡" d="M362 408 l-110 0 l0 110 l110 0 l0 -110 ZM343 68 l0 -180 l-72 0 l0 180 l25 248 l22 0 l25 -248 Z" /><glyph glyph-name="cent" unicode="¢" d="M479 144 l40 -35 q-22 -52 -66 -83.5 q-44 -31.5 -105 -36.5 l0 -88 l-49 0 l0 88 q-91 8 -147 71 q-56 63 -56 157 q0 93 56 155.5 q56 62.5 147 72.5 l0 98 l49 0 l0 -98 q57 -4 99 -31.5 q42 -27.5 65 -75.5 l-39 -42 q-17 41 -49 66 q-32 25 -76 30 l0 -350 q47 5 80.5 31.5 q33.5 26.5 50.5 70.5 ZM155 217 q0 -73 38.5 -120 q38.5 -47 105.5 -55 l0 349 q-67 -8 -105.5 -54.5 q-38.5 -46.5 -38.5 -119.5 Z" /><glyph glyph-name="sterling" unicode="£" d="M449 -12 q-39 0 -76 16 q-37 16 -109 74 q-15 -44 -45.5 -67 q-30.5 -23 -74.5 -23 q-46 0 -75 25.5 q-29 25.5 -29 68.5 q0 42 30.5 69.5 q30.5 27.5 77.5 27.5 q18 0 36 -4.5 q18 -4.5 37 -13.5 q0 29 -7 58 q-7 29 -26 74 l-107 0 l0 48 l87 0 q-12 29 -18 56 q-6 27 -6 55 q0 87 51.5 138.5 q51.5 51.5 139.5 51.5 q88 0 141 -48 q53 -48 58 -133 l-58 -14 q-2 70 -38 107 q-36 37 -103 37 q-63 0 -97 -36.5 q-34 -36.5 -34 -102.5 q0 -24 5.5 -50 q5.5 -26 18.5 -61 l156 0 l0 -48 l-138 0 q18 -45 24.5 -75 q6.5 -30 6.5 -57 q0 -6 -0.5 -14 q-0.5 -8 -1.5 -20 q6 -4 35 -25 q29 -21 48 -32 q25 -14 47.5 -21 q22.5 -7 45.5 -7 q41 0 62 32.5 q21 32.5 21 96.5 l56 -9 q0 -81 -37.5 -127.5 q-37.5 -46.5 -103.5 -46.5 ZM89 83 q0 -24 15.5 -38.5 q15.5 -14.5 40.5 -14.5 q31 0 49 20 q18 20 24 62 q-21 13 -37.5 18.5 q-16.5 5.5 -32.5 5.5 q-28 0 -43.5 -13.5 q-15.5 -13.5 -15.5 -39.5 Z" /><glyph glyph-name="yen" unicode="¥" d="M507 195 l0 -48 l-170 0 l0 -147 l-60 0 l0 147 l-170 0 l0 48 l170 0 l0 77 l-170 0 l0 48 l138 0 l-205 310 l69 0 l202 -310 l196 310 l67 0 l-205 -310 l138 0 l0 -48 l-170 0 l0 -77 l170 0 Z" /><glyph glyph-name="section" unicode="§" d="M169 309 q0 -29 17.5 -50 q17.5 -21 66.5 -44 l122 -58 q36 12 53 31.5 q17 19.5 17 48.5 q0 29 -17.5 50 q-17.5 21 -66.5 44 l-122 58 q-36 -12 -53 -31.5 q-17 -19.5 -17 -48.5 ZM468 35 q0 -58 -45.5 -94.5 q-45.5 -36.5 -115.5 -36.5 q-61 0 -107.5 24 q-46.5 24 -68.5 66 l43 41 q16 -36 52 -57.5 q36 -21.5 81 -21.5 q46 0 75.5 22 q29.5 22 29.5 56 q0 26 -12.5 41.5 q-12.5 15.5 -41.5 28.5 l-134 62 q-59 27 -84.5 61 q-25.5 34 -25.5 82 q0 34 20.5 63.5 q20.5 29.5 54.5 45.5 q-22 18 -32.5 41 q-10.5 23 -10.5 52 q0 58 45.5 94.5 q45.5 36.5 115.5 36.5 q61 0 107.5 -24 q46.5 -24 68.5 -66 l-43 -41 q-16 36 -52 57.5 q-36 21.5 -81 21.5 q-46 0 -75.5 -22 q-29.5 -22 -29.5 -56 q0 -26 12.5 -41.5 q12.5 -15.5 41.5 -28.5 l134 -62 q59 -27 84.5 -61 q25.5 -34 25.5 -82 q0 -34 -20.5 -63.5 q-20.5 -29.5 -54.5 -45.5 q22 -18 32.5 -41 q10.5 -23 10.5 -52 Z" /><glyph glyph-name="dieresis" unicode="¨" d="M258 539 l-88 0 l0 91 l88 0 l0 -91 ZM443 539 l-87 0 l0 91 l87 0 l0 -91 Z" /><glyph glyph-name="copyright" unicode="©" d="M308 -12 q-118 0 -199 94 q-81 94 -81 233 q0 139 81 233 q81 94 199 94 q117 0 197.5 -94 q80.5 -94 80.5 -233 q0 -139 -80.5 -233 q-80.5 -94 -197.5 -94 ZM308 597 q-99 0 -166 -80.5 q-67 -80.5 -67 -201.5 q0 -121 67 -201.5 q67 -80.5 166 -80.5 q98 0 165 81 q67 81 67 201 q0 120 -67 201 q-67 81 -165 81 ZM308 116 q-69 0 -114.5 56 q-45.5 56 -45.5 142 q0 86 45.5 142 q45.5 56 114.5 56 q53 0 89.5 -28.5 q36.5 -28.5 51.5 -80.5 l-41 -26 q-10 40 -35.5 62.5 q-25.5 22.5 -63.5 22.5 q-49 0 -78.5 -40 q-29.5 -40 -29.5 -108 q0 -67 29.5 -107 q29.5 -40 78.5 -40 q41 0 67.5 26 q26.5 26 33.5 72 l43 -28 q-14 -58 -51.5 -89.5 q-37.5 -31.5 -93.5 -31.5 Z" /><glyph glyph-name="ordfeminine" unicode="ª" d="M303 597 q-32 0 -55.5 -15 q-23.5 -15 -32.5 -40 l-49 18 q17 38 53.5 60 q36.5 22 84.5 22 q53 0 81.5 -23 q28.5 -23 28.5 -66 l0 -145 q0 -16 9 -25 q9 -9 23 -9 q10 0 19 3.5 q9 3.5 16 9.5 l3 -41 q-11 -9 -23 -13 q-12 -4 -25 -4 q-30 0 -51 19 q-21 19 -23 47 q-11 -29 -42.5 -47 q-31.5 -18 -70.5 -18 q-43 0 -69 23.5 q-26 23.5 -26 62.5 q0 35 26.5 56.5 q26.5 21.5 89.5 36.5 l92 20 l0 26 q0 19 -15.5 30.5 q-15.5 11.5 -43.5 11.5 ZM262 373 q39 0 69.5 25 q30.5 25 30.5 58 l0 38 l-78 -19 q-44 -11 -59.5 -23 q-15.5 -12 -15.5 -32 q0 -22 14 -34.5 q14 -12.5 39 -12.5 ZM165 185 l0 48 l273 0 l0 -48 l-273 0 Z" /><glyph glyph-name="registered" unicode="®" d="M307 642 q90 0 151 -61 q61 -61 61 -152 q0 -91 -61 -152 q-61 -61 -151 -61 q-90 0 -151 61 q-61 61 -61 152 q0 91 61 152 q61 61 151 61 ZM307 253 q74 0 123.5 50 q49.5 50 49.5 126 q0 76 -49.5 126.5 q-49.5 50.5 -123.5 50.5 q-74 0 -123.5 -50.5 q-49.5 -50.5 -49.5 -126.5 q0 -76 49.5 -126 q49.5 -50 123.5 -50 ZM263 508 l0 -67 l51 0 q24 0 35 8 q11 8 11 26 q0 17 -11.5 25 q-11.5 8 -34.5 8 l-51 0 ZM395 377 q3 -22 7 -35 q4 -13 11 -20 l-48 0 q-5 6 -8 17 q-3 11 -5 28 q-3 21 -11.5 30.5 q-8.5 9.5 -25.5 9.5 l-52 0 l0 -85 l-43 0 l0 221 l100 0 q41 0 62.5 -17 q21.5 -17 21.5 -49 q0 -22 -18.5 -37.5 q-18.5 -15.5 -42.5 -17.5 q23 -4 36.5 -15.5 q13.5 -11.5 15.5 -29.5 Z" /><glyph glyph-name="macron" unicode="¯" d="M456 550 l-297 0 l0 56 l297 0 l0 -56 Z" /><glyph glyph-name="degree" unicode="°" d="M307 376 q-57 0 -96 38.5 q-39 38.5 -39 94.5 q0 56 39 94.5 q39 38.5 96 38.5 q57 0 96 -38.5 q39 -38.5 39 -94.5 q0 -56 -39 -94.5 q-39 -38.5 -96 -38.5 ZM307 595 q-36 0 -59.5 -24.5 q-23.5 -24.5 -23.5 -61.5 q0 -37 23.5 -61.5 q23.5 -24.5 59.5 -24.5 q36 0 59.5 24.5 q23.5 24.5 23.5 61.5 q0 37 -23.5 61.5 q-23.5 24.5 -59.5 24.5 Z" /><glyph glyph-name="plusminus" unicode="±" d="M564 403 l0 -51 l-232 0 l0 -200 l-51 0 l0 200 l-232 0 l0 51 l232 0 l0 200 l51 0 l0 -200 l232 0 ZM564 46 l-515 0 l0 52 l515 0 l0 -52 Z" /><glyph glyph-name="twosuperior" unicode="²" d="M323 394 l-58 -47 l163 0 l0 -46 l-245 0 l0 33 l94 79 q54 46 70 70 q16 24 16 50 q0 28 -16 43.5 q-16 15.5 -45 15.5 q-30 0 -47 -18.5 q-17 -18.5 -17 -51.5 q0 -8 1 -15 q1 -7 4 -15 l-53 2 q-3 10 -4 17 q-1 7 -1 14 q0 51 32 82 q32 31 86 31 q54 0 85 -27.5 q31 -27.5 31 -74.5 q0 -32 -19 -62.5 q-19 -30.5 -77 -79.5 Z" /><glyph glyph-name="threesuperior" unicode="³" d="M307 594 q-32 0 -51 -19 q-19 -19 -20 -53 l-51 14 q5 46 38.5 74 q33.5 28 84.5 28 q53 0 84 -25.5 q31 -25.5 31 -68.5 q0 -29 -20 -50.5 q-20 -21.5 -49 -25.5 q33 -3 54.5 -25 q21.5 -22 21.5 -54 q0 -42 -33.5 -68 q-33.5 -26 -88.5 -26 q-56 0 -91 26.5 q-35 26.5 -40 73.5 l51 14 q2 -33 23.5 -52 q21.5 -19 57.5 -19 q30 0 48 14.5 q18 14.5 18 40.5 q0 24 -19 38.5 q-19 14.5 -51 14.5 q-9 0 -16.5 -0.5 q-7.5 -0.5 -13.5 -2.5 l0 46 q8 -1 15 -1.5 q7 -0.5 16 -0.5 q31 0 48 13.5 q17 13.5 17 38.5 q0 26 -17 40.5 q-17 14.5 -47 14.5 Z" /><glyph glyph-name="acute" unicode="´" d="M272 516 l-42 0 l60 162 l94 0 l-112 -162 Z" /><glyph glyph-name="paragraph" unicode="¶" d="M327 -86 l-54 0 l0 370 q-103 0 -160 45.5 q-57 45.5 -57 127.5 q0 82 57 127.5 q57 45.5 160 45.5 l208 0 l0 -716 l-55 0 l0 663 l-99 0 l0 -663 Z" /><glyph glyph-name="periodcentered" unicode="·" d="M362 215 l-110 0 l0 110 l110 0 l0 -110 Z" /><glyph glyph-name="cedilla" unicode="¸" d="M414 -126 q0 -38 -29.5 -60.5 q-29.5 -22.5 -76.5 -22.5 q-31 0 -61 12 q-30 12 -52 32 l21 39 q22 -20 44 -29.5 q22 -9.5 46 -9.5 q24 0 37.5 9 q13.5 9 13.5 26 q0 27 -29.5 35 q-29.5 8 -58.5 -7 l-27 14 l60 99 l44 0 l-44 -71 q43 10 77.5 -9 q34.5 -19 34.5 -57 Z" /><glyph glyph-name="onesuperior" unicode="¹" d="M440 345 l0 -44 l-249 0 l0 44 l101 0 l0 199 l-90 0 l0 40 l27 0 q40 0 56 9.5 q16 9.5 24 39.5 l37 0 l0 -288 l94 0 Z" /><glyph glyph-name="ordmasculine" unicode="º" d="M307 643 q68 0 113.5 -44.5 q45.5 -44.5 45.5 -112.5 q0 -68 -45.5 -112.5 q-45.5 -44.5 -113.5 -44.5 q-68 0 -112.5 44.5 q-44.5 44.5 -44.5 112.5 q0 68 45 112.5 q45 44.5 112 44.5 ZM307 598 q-45 0 -72 -30.5 q-27 -30.5 -27 -81.5 q0 -51 27 -82 q27 -31 72 -31 q46 0 73.5 31 q27.5 31 27.5 82 q0 51 -27.5 81.5 q-27.5 30.5 -73.5 30.5 ZM170 185 l0 48 l273 0 l0 -48 l-273 0 Z" /><glyph glyph-name="onequarter" unicode="¼" d="M624 630 l-235 -251 l-17 20 l173 231 l79 0 ZM-10 0 l235 251 l17 -20 l-173 -231 l-79 0 ZM280 345 l0 -44 l-249 0 l0 44 l101 0 l0 199 l-90 0 l0 40 l27 0 q40 0 56 9.5 q16 9.5 24 39.5 l37 0 l0 -288 l94 0 ZM460 330 l65 0 l0 -201 l57 0 l0 -44 l-57 0 l0 -85 l-53 0 l0 85 l-166 0 l0 50 l154 195 ZM472 129 l0 154 l-120 -154 l120 0 Z" /><glyph glyph-name="onehalf" unicode="½" d="M624 630 l-235 -251 l-17 20 l173 231 l79 0 ZM-10 0 l235 251 l17 -20 l-173 -231 l-79 0 ZM280 345 l0 -44 l-249 0 l0 44 l101 0 l0 199 l-90 0 l0 40 l27 0 q40 0 56 9.5 q16 9.5 24 39.5 l37 0 l0 -288 l94 0 ZM477 93 l-58 -47 l163 0 l0 -46 l-245 0 l0 33 l94 79 q54 46 70 70 q16 24 16 50 q0 28 -16 43.5 q-16 15.5 -45 15.5 q-30 0 -47 -18.5 q-17 -18.5 -17 -51.5 q0 -8 1 -15 q1 -7 4 -15 l-53 2 q-3 10 -4 17 q-1 7 -1 14 q0 51 32 82 q32 31 86 31 q54 0 85 -27.5 q31 -27.5 31 -74.5 q0 -32 -19 -62.5 q-19 -30.5 -77 -79.5 Z" /><glyph glyph-name="threequarters" unicode="¾" d="M624 630 l-235 -251 l-17 20 l173 231 l79 0 ZM-10 0 l235 251 l17 -20 l-173 -231 l-79 0 ZM167 594 q-32 0 -51 -19 q-19 -19 -20 -53 l-51 14 q5 46 38.5 74 q33.5 28 84.5 28 q53 0 84 -25.5 q31 -25.5 31 -68.5 q0 -29 -20 -50.5 q-20 -21.5 -49 -25.5 q33 -3 54.5 -25 q21.5 -22 21.5 -54 q0 -42 -33.5 -68 q-33.5 -26 -88.5 -26 q-56 0 -91 26.5 q-35 26.5 -40 73.5 l51 14 q2 -33 23.5 -52 q21.5 -19 57.5 -19 q30 0 48 14.5 q18 14.5 18 40.5 q0 24 -19 38.5 q-19 14.5 -51 14.5 q-9 0 -16.5 -0.5 q-7.5 -0.5 -13.5 -2.5 l0 46 q8 -1 15 -1.5 q7 -0.5 16 -0.5 q31 0 48 13.5 q17 13.5 17 38.5 q0 26 -17 40.5 q-17 14.5 -47 14.5 ZM460 330 l65 0 l0 -201 l57 0 l0 -44 l-57 0 l0 -85 l-53 0 l0 85 l-166 0 l0 50 l154 195 ZM472 129 l0 154 l-120 -154 l120 0 Z" /><glyph glyph-name="questiondown" unicode="¿" d="M263 518 l110 0 l0 -110 l-110 0 l0 110 ZM236 245 q27 19 38.5 35 q11.5 16 13.5 38 l57 0 q-2 -37 -18.5 -62.5 q-16.5 -25.5 -57.5 -54.5 q-30 -21 -48.5 -35 q-18.5 -14 -25.5 -21 q-18 -19 -26.5 -39.5 q-8.5 -20.5 -8.5 -44.5 q0 -61 38 -97.5 q38 -36.5 104 -36.5 q72 0 111.5 42.5 q39.5 42.5 39.5 119.5 q0 11 -1 22 q-1 11 -3 21 l68 -4 q2 -11 2.5 -22 q0.5 -11 0.5 -21 q0 -94 -60 -151.5 q-60 -57.5 -158 -57.5 q-97 0 -152.5 50.5 q-55.5 50.5 -55.5 134.5 q0 31 11 58 q11 27 34 51 q14 14 32.5 29 q18.5 15 64.5 46 Z" /><glyph glyph-name="AE" unicode="æ" d="M298 256 l0 326 l-129 -326 l129 0 ZM592 0 l-294 0 l0 201 l-151 0 l-79 -201 l-62 0 l254 630 l326 0 l0 -55 l-225 0 l0 -219 l166 0 l0 -56 l-166 0 l0 -245 l231 0 l0 -55 Z" /><glyph glyph-name="Ccedilla" unicode="ç" d="M416 -126 q0 -38 -29.5 -60.5 q-29.5 -22.5 -76.5 -22.5 q-31 0 -61 12 q-30 12 -52 32 l21 39 q22 -20 44 -29.5 q22 -9.5 46 -9.5 q24 0 37.5 9 q13.5 9 13.5 26 q0 27 -29.5 35 q-29.5 8 -58.5 -7 l-27 14 l47 78 q-102 13 -167 103.5 q-65 90.5 -65 221.5 q0 143 75.5 235 q75.5 92 190.5 92 q78 0 135 -41 q57 -41 84 -117 l-58 -42 q-18 69 -61 107 q-43 38 -104 38 q-84 0 -139.5 -76 q-55.5 -76 -55.5 -196 q0 -119 55 -195.5 q55 -76.5 137 -76.5 q72 0 116 42.5 q44 42.5 59 125.5 l61 -40 q-23 -84 -80 -131.5 q-57 -47.5 -140 -51.5 l-30 -48 q43 10 77.5 -9 q34.5 -19 34.5 -57 Z" /><glyph glyph-name="Eth" unicode="ð" d="M557 315 q0 -146 -85 -230.5 q-85 -84.5 -233 -84.5 l-155 0 l0 307 l-59 0 l0 51 l59 0 l0 272 l155 0 q148 0 233 -84.5 q85 -84.5 85 -230.5 ZM149 307 l0 -252 l81 0 q126 0 192.5 67 q66.5 67 66.5 193 q0 126 -66.5 193 q-66.5 67 -192.5 67 l-81 0 l0 -217 l177 0 l0 -51 l-177 0 Z" /><glyph glyph-name="multiply" unicode="×" d="M105 141 l167 167 l-167 167 l37 37 l165 -169 l165 169 l37 -37 l-167 -167 l167 -167 l-37 -37 l-165 169 l-165 -169 l-37 37 Z" /><glyph glyph-name="Oslash" unicode="ø" d="M307 587 q-86 0 -137.5 -74 q-51.5 -74 -51.5 -198 q0 -52 9.5 -97 q9.5 -45 28.5 -80 l279 388 q-26 30 -58 45.5 q-32 15.5 -70 15.5 ZM307 43 q86 0 137.5 74 q51.5 74 51.5 198 q0 48 -8 89 q-8 41 -24 74 l-275 -385 q24 -25 54 -37.5 q30 -12.5 64 -12.5 ZM563 315 q0 -144 -71.5 -235.5 q-71.5 -91.5 -184.5 -91.5 q-43 0 -82 14.5 q-39 14.5 -71 43.5 l-51 -72 l-41 32 l56 79 q-33 44 -50 103 q-17 59 -17 127 q0 144 71.5 235.5 q71.5 91.5 184.5 91.5 q47 0 88.5 -17 q41.5 -17 74.5 -50 l45 63 l41 -32 l-52 -73 q29 -44 44 -99.5 q15 -55.5 15 -118.5 Z" /><glyph glyph-name="Thorn" unicode="þ" d="M553 320 q0 -87 -63.5 -135.5 q-63.5 -48.5 -176.5 -48.5 l-141 0 l0 -136 l-64 0 l0 630 l64 0 l0 -126 l141 0 q113 0 176.5 -48.5 q63.5 -48.5 63.5 -135.5 ZM172 449 l0 -258 l141 0 q89 0 132.5 32 q43.5 32 43.5 97 q0 65 -43.5 97 q-43.5 32 -132.5 32 l-141 0 Z" /><glyph glyph-name="germandbls" unicode="ß" d="M320 642 q82 0 128.5 -41 q46.5 -41 46.5 -112 q0 -54 -31 -90.5 q-31 -36.5 -79 -44.5 q69 -9 110 -55 q41 -46 41 -114 q0 -86 -54.5 -138 q-54.5 -52 -139.5 -52 q-16 0 -31 2.5 q-15 2.5 -40 10.5 l0 48 q18 -6 36 -9.5 q18 -3.5 31 -3.5 q62 0 98.5 37.5 q36.5 37.5 36.5 104.5 q0 64 -42.5 103 q-42.5 39 -112.5 38 q-18 0 -24.5 0 q-6.5 0 -17.5 -1 l0 51 q7 -1 14.5 -1.5 q7.5 -0.5 27.5 -0.5 q56 0 86 29.5 q30 29.5 30 84.5 q0 49 -30.5 78 q-30.5 29 -83.5 29 q-61 0 -98 -39.5 q-37 -39.5 -37 -105.5 l0 -450 l-61 0 l0 455 q0 82 55 134.5 q55 52.5 141 52.5 Z" /><glyph glyph-name="ae" unicode="æ" d="M434 -12 q-50 0 -90 29 q-40 29 -62 82 q-19 -49 -56 -78.5 q-37 -29.5 -83 -29.5 q-52 0 -85.5 34.5 q-33.5 34.5 -33.5 89.5 q0 48 33 80 q33 32 108 54 l97 28 l0 50 q0 30 -17.5 48 q-17.5 18 -50.5 18 q-37 0 -62 -22 q-25 -22 -39 -66 l-52 25 q20 54 60.5 85 q40.5 31 92.5 31 q43 0 70.5 -20.5 q27.5 -20.5 37.5 -58.5 q23 38 56.5 58.5 q33.5 20.5 72.5 20.5 q72 0 115.5 -58.5 q43.5 -58.5 43.5 -148.5 l0 -28 l-277 0 q0 -76 34.5 -124 q34.5 -48 87.5 -48 q37 0 63 24.5 q26 24.5 42 75.5 l47 -36 q-21 -56 -60 -85.5 q-39 -29.5 -93 -29.5 ZM431 394 q-46 0 -77 -37 q-31 -37 -39 -97 l217 0 q-3 64 -29 99 q-26 35 -72 35 ZM154 43 q42 0 75 40 q33 40 33 90 l0 57 l-86 -27 q-56 -17 -74.5 -36 q-18.5 -19 -18.5 -52 q0 -32 19.5 -52 q19.5 -20 51.5 -20 Z" /><glyph glyph-name="ccedilla" unicode="ç" d="M416 -126 q0 -38 -29.5 -60.5 q-29.5 -22.5 -76.5 -22.5 q-31 0 -61 12 q-30 12 -52 32 l21 39 q22 -20 44 -29.5 q22 -9.5 46 -9.5 q24 0 37.5 9 q13.5 9 13.5 26 q0 27 -29.5 35 q-29.5 8 -58.5 -7 l-27 14 l47 78 q-86 10 -138.5 72.5 q-52.5 62.5 -52.5 154.5 q0 100 62.5 164.5 q62.5 64.5 160.5 64.5 q62 0 107.5 -28 q45.5 -28 70.5 -80 l-47 -42 q-17 46 -51 71.5 q-34 25.5 -80 25.5 q-72 0 -115.5 -48 q-43.5 -48 -43.5 -128 q0 -80 43 -128 q43 -48 113 -48 q50 0 86.5 27 q36.5 27 52.5 76 l48 -35 q-22 -54 -66.5 -86 q-44.5 -32 -106.5 -35 l-30 -48 q43 10 77.5 -9 q34.5 -19 34.5 -57 Z" /><glyph glyph-name="eth" unicode="ð" d="M530 227 q0 -111 -60 -175 q-60 -64 -162 -64 q-98 0 -161.5 63 q-63.5 63 -63.5 161 q0 99 63.5 162 q63.5 63 161.5 63 q46 0 86.5 -22.5 q40.5 -22.5 66.5 -63.5 q-15 43 -49 87 q-34 44 -84 85 l-124 -49 l-16 36 l103 40 q-21 15 -43 29 q-22 14 -46 27 l31 37 q30 -16 58.5 -34 q28.5 -18 54.5 -37 l77 30 l17 -35 l-59 -23 q75 -65 112 -144 q37 -79 37 -173 ZM149 212 q0 -80 42.5 -127 q42.5 -47 116.5 -47 q74 0 116.5 47 q42.5 47 42.5 127 q0 81 -42.5 128 q-42.5 47 -116.5 47 q-74 0 -116.5 -47 q-42.5 -47 -42.5 -128 Z" /><glyph glyph-name="divide" unicode="÷" d="M350 477 l-84 0 l0 84 l84 0 l0 -84 ZM560 286 l-506 0 l0 52 l506 0 l0 -52 ZM350 63 l-84 0 l0 84 l84 0 l0 -84 Z" /><glyph glyph-name="oslash" unicode="ø" d="M307 394 q-72 0 -115.5 -48.5 q-43.5 -48.5 -43.5 -128.5 q0 -32 7.5 -60.5 q7.5 -28.5 22.5 -50.5 l226 257 q-20 15 -44.5 23 q-24.5 8 -52.5 8 ZM307 40 q73 0 116.5 48.5 q43.5 48.5 43.5 128.5 q0 34 -8 63 q-8 29 -24 51 l-228 -258 q20 -16 45.5 -24.5 q25.5 -8.5 54.5 -8.5 ZM531 217 q0 -99 -64.5 -164 q-64.5 -65 -159.5 -65 q-38 0 -72.5 11.5 q-34.5 11.5 -62.5 33.5 l-60 -68 l-34 28 l61 70 q-27 31 -41 70.5 q-14 39.5 -14 83.5 q0 99 64 164 q64 65 159 65 q37 0 71 -10.5 q34 -10.5 62 -31.5 l53 60 l34 -28 l-54 -62 q28 -30 43 -70.5 q15 -40.5 15 -86.5 Z" /><glyph glyph-name="thorn" unicode="þ" d="M330 397 q-64 0 -107 -48 q-43 -48 -43 -122 l0 -20 q0 -74 43 -122 q43 -48 107 -48 q72 0 113.5 48.5 q41.5 48.5 41.5 131.5 q0 83 -41.5 131.5 q-41.5 48.5 -113.5 48.5 ZM343 -12 q-57 0 -99.5 30 q-42.5 30 -60.5 81 l0 -269 l-61 0 l0 800 l61 0 l0 -295 q18 51 60.5 81 q42.5 30 99.5 30 q92 0 149 -64 q57 -64 57 -165 q0 -101 -57 -165 q-57 -64 -149 -64 Z" /><glyph glyph-name="Aogonek" unicode="&#x104;" d="M306 558 l-4 0 l-100 -302 l205 0 l-101 302 ZM549 -111 l8 -37 q-15 -13 -37 -21 q-22 -8 -45 -8 q-34 0 -55 18 q-21 18 -21 49 q0 27 17.5 52.5 q17.5 25.5 72.5 68.5 l-63 190 l-242 0 l-66 -201 l-65 0 l215 630 l78 0 l215 -630 l-35 0 q-41 -37 -55.5 -57.5 q-14.5 -20.5 -14.5 -40.5 q0 -15 10 -24 q10 -9 28 -9 q13 0 27 5 q14 5 28 15 Z" /><glyph glyph-name="aogonek" unicode="&#x105;" d="M497 -177 q-34 0 -55 18 q-21 18 -21 49 q0 24 15 48 q15 24 51 54 q-38 5 -63.5 32.5 q-25.5 27.5 -26.5 65.5 q-16 -44 -63 -71.5 q-47 -27.5 -106 -27.5 q-61 0 -99 34.5 q-38 34.5 -38 91.5 q0 51 40.5 83.5 q40.5 32.5 134.5 53.5 l131 28 l0 45 q0 29 -24.5 47.5 q-24.5 18.5 -68.5 18.5 q-50 0 -87.5 -24 q-37.5 -24 -52.5 -64 l-55 25 q25 54 77 85 q52 31 118 31 q72 0 111.5 -31.5 q39.5 -31.5 39.5 -88.5 l0 -225 q0 -26 14 -40.5 q14 -14.5 37 -14.5 q15 0 28.5 5 q13.5 5 23.5 14 l3 -53 q-51 -46 -67 -68 q-16 -22 -16 -42 q0 -15 10 -24 q10 -9 28 -9 q13 0 27 5 q14 5 28 15 l8 -37 q-15 -13 -37 -21 q-22 -8 -45 -8 ZM237 43 q62 0 111 40 q49 40 49 90 l0 62 l-121 -27 q-74 -17 -98.5 -36.5 q-24.5 -19.5 -24.5 -52.5 q0 -35 22.5 -55.5 q22.5 -20.5 61.5 -20.5 Z" /><glyph glyph-name="Dcroat" unicode="&#x110;" d="M557 315 q0 -146 -85 -230.5 q-85 -84.5 -233 -84.5 l-155 0 l0 307 l-59 0 l0 51 l59 0 l0 272 l155 0 q148 0 233 -84.5 q85 -84.5 85 -230.5 ZM149 307 l0 -252 l81 0 q126 0 192.5 67 q66.5 67 66.5 193 q0 126 -66.5 193 q-66.5 67 -192.5 67 l-81 0 l0 -217 l177 0 l0 -51 l-177 0 Z" /><glyph glyph-name="dcroat" unicode="&#x111;" d="M284 37 q64 0 107 48 q43 48 43 122 l0 20 q0 74 -43 122 q-43 48 -107 48 q-72 0 -113.5 -48.5 q-41.5 -48.5 -41.5 -131.5 q0 -83 41.5 -131.5 q41.5 -48.5 113.5 -48.5 ZM431 0 l0 99 q-18 -51 -60.5 -81 q-42.5 -30 -99.5 -30 q-92 0 -149 64 q-57 64 -57 165 q0 101 57 165 q57 64 149 64 q57 0 99.5 -30 q42.5 -30 60.5 -81 l0 172 l-157 0 l0 46 l157 0 l0 77 l61 0 l0 -77 l63 0 l0 -46 l-63 0 l0 -507 l-61 0 Z" /><glyph glyph-name="Eogonek" unicode="&#x118;" d="M473 -111 l8 -37 q-15 -13 -37 -21 q-22 -8 -45 -8 q-34 0 -55 18 q-21 18 -21 49 q0 26 16 50 q16 24 60 60 l-273 0 l0 630 l387 0 l0 -55 l-324 0 l0 -219 l231 0 l0 -56 l-231 0 l0 -245 l333 0 l0 -55 l-72 0 q-41 -37 -55.5 -57.5 q-14.5 -20.5 -14.5 -40.5 q0 -15 10 -24 q10 -9 28 -9 q13 0 27 5 q14 5 28 15 Z" /><glyph glyph-name="eogonek" unicode="&#x119;" d="M370 -177 q-34 0 -55 18 q-21 18 -21 49 q0 25 15 48.5 q15 23.5 52 54.5 q-13 -2 -26.5 -3.5 q-13.5 -1.5 -26.5 -1.5 q-97 0 -158.5 62.5 q-61.5 62.5 -61.5 160.5 q0 102 61.5 168.5 q61.5 66.5 154.5 66.5 q93 0 148.5 -59.5 q55.5 -59.5 55.5 -152.5 l0 -23 l-360 0 q0 -75 46 -123.5 q46 -48.5 115 -48.5 q58 0 94.5 25.5 q36.5 25.5 56.5 80.5 l46 -39 q-12 -24 -28 -43.5 q-16 -19.5 -36 -34.5 q-45 -42 -68 -73.5 q-23 -31.5 -23 -52.5 q0 -15 10 -24 q10 -9 28 -9 q13 0 27 5 q14 5 28 15 l8 -37 q-15 -13 -37 -21 q-22 -8 -45 -8 ZM304 394 q-60 0 -102 -37.5 q-42 -37.5 -51 -96.5 l297 0 q-3 59 -42.5 96.5 q-39.5 37.5 -101.5 37.5 Z" /><glyph glyph-name="Hbar" unicode="&#x126;" d="M145 447 l0 -132 l324 0 l0 132 l-324 0 ZM469 260 l-324 0 l0 -260 l-65 0 l0 447 l-55 0 l0 51 l55 0 l0 132 l65 0 l0 -132 l324 0 l0 132 l65 0 l0 -132 l55 0 l0 -51 l-55 0 l0 -447 l-65 0 l0 260 Z" /><glyph glyph-name="hbar" unicode="&#x127;" d="M321 392 q-61 0 -100.5 -42.5 q-39.5 -42.5 -39.5 -108.5 l0 -241 l-61 0 l0 507 l-70 0 l0 46 l70 0 l0 77 l61 0 l0 -77 l150 0 l0 -46 l-150 0 l0 -165 q17 46 60 75 q43 29 98 29 q79 0 120.5 -46 q41.5 -46 41.5 -131 l0 -269 l-61 0 l0 265 q0 60 -31.5 93.5 q-31.5 33.5 -87.5 33.5 Z" /><glyph glyph-name="Iogonek" unicode="&#x12e;" d="M374 -111 l8 -37 q-15 -13 -37 -21 q-22 -8 -45 -8 q-34 0 -55 18 q-21 18 -21 49 q0 26 16 50 q16 24 60 60 l-209 0 l0 55 l183 0 l0 520 l-183 0 l0 55 l431 0 l0 -55 l-183 0 l0 -520 l183 0 l0 -55 l-171 0 q-41 -37 -55.5 -57.5 q-14.5 -20.5 -14.5 -40.5 q0 -15 10 -24 q10 -9 28 -9 q13 0 27 5 q14 5 28 15 Z" /><glyph glyph-name="iogonek" unicode="&#x12f;" d="M372 549 l-97 0 l0 93 l97 0 l0 -93 ZM396 -111 l8 -37 q-15 -13 -37 -21 q-22 -8 -45 -8 q-34 0 -55 18 q-21 18 -21 49 q0 26 16 50 q16 24 60 60 l-214 0 l0 48 l191 0 l0 338 l-171 0 l0 48 l232 0 l0 -386 l197 0 l0 -48 l-184 0 q-41 -37 -55.5 -57.5 q-14.5 -20.5 -14.5 -40.5 q0 -15 10 -24 q10 -9 28 -9 q13 0 27 5 q14 5 28 15 Z" /><glyph glyph-name="dotlessi" unicode="&#x131;" d="M557 48 l0 -48 l-449 0 l0 48 l191 0 l0 338 l-171 0 l0 48 l232 0 l0 -386 l197 0 Z" /><glyph glyph-name="jcircumflex" unicode="&#x135;" d="M252 -182 q-63 0 -113 33 q-50 33 -66 83 l36 53 q25 -60 59 -87 q34 -27 84 -27 q55 0 89.5 36 q34.5 36 34.5 98 l0 379 l-216 0 l0 48 l277 0 l0 -432 q0 -84 -51 -134 q-51 -50 -134 -50 ZM265 508 l104 163 l80 0 l104 -163 l-50 0 l-94 112 l-94 -112 l-50 0 Z" /><glyph glyph-name="kgreenlandic" unicode="&#x138;" d="M265 228 l-79 -65 l0 -163 l-61 0 l0 434 l61 0 l0 -210 l252 210 l81 0 l-209 -170 l219 -264 l-73 0 l-191 228 Z" /><glyph glyph-name="Ldot" unicode="&#x13f;" d="M130 0 l0 630 l65 0 l0 -575 l330 0 l0 -55 l-395 0 ZM541 295 l-97 0 l0 93 l97 0 l0 -93 Z" /><glyph glyph-name="ldot" unicode="&#x140;" d="M557 48 l0 -48 l-449 0 l0 48 l191 0 l0 534 l-171 0 l0 48 l232 0 l0 -582 l197 0 ZM643 265 l-97 0 l0 93 l97 0 l0 -93 Z" /><glyph glyph-name="Lslash" unicode="&#x141;" d="M525 55 l0 -55 l-395 0 l0 263 l-85 -36 l0 54 l85 36 l0 313 l65 0 l0 -286 l172 73 l0 -54 l-172 -73 l0 -235 l330 0 Z" /><glyph glyph-name="lslash" unicode="&#x142;" d="M557 48 l0 -48 l-449 0 l0 48 l191 0 l0 246 l-143 -64 l0 52 l143 64 l0 236 l-171 0 l0 48 l232 0 l0 -255 l134 60 l0 -52 l-134 -60 l0 -275 l197 0 Z" /><glyph glyph-name="Eng" unicode="&#x14a;" d="M391 -130 q46 0 65 31.5 q19 31.5 19 109.5 l-335 534 l0 -545 l-60 0 l0 630 l74 0 l320 -521 l0 521 l60 0 l0 -656 q0 -75 -37 -115.5 q-37 -40.5 -104 -40.5 q-52 0 -91 21.5 q-39 21.5 -61 61.5 l42 31 q23 -34 48.5 -48 q25.5 -14 59.5 -14 Z" /><glyph glyph-name="eng" unicode="&#x14b;" d="M399 -182 q-24 0 -48 8.5 q-24 8.5 -41 23.5 l19 40 q20 -13 35.5 -18 q15.5 -5 33.5 -5 q21 0 31.5 12.5 q10.5 12.5 10.5 37.5 l0 348 q0 60 -31.5 93.5 q-31.5 33.5 -87.5 33.5 q-61 0 -100.5 -42.5 q-39.5 -42.5 -39.5 -108.5 l0 -241 l-61 0 l0 434 l61 0 l0 -92 q17 46 60 75 q43 29 98 29 q79 0 120.5 -46 q41.5 -46 41.5 -131 l0 -342 q0 -53 -26 -81 q-26 -28 -76 -28 Z" /><glyph glyph-name="OE" unicode="&#x152;" d="M609 0 l-326 0 q-109 0 -183 88.5 q-74 88.5 -74 226.5 q0 138 74 226.5 q74 88.5 183 88.5 l320 0 l0 -55 l-228 0 l0 -219 l172 0 l0 -56 l-172 0 l0 -245 l234 0 l0 -55 ZM310 55 l0 520 l-25 0 q-87 0 -142 -71.5 q-55 -71.5 -55 -188.5 q0 -117 55 -188.5 q55 -71.5 142 -71.5 l25 0 Z" /><glyph glyph-name="oe" unicode="&#x153;" d="M549 145 l45 -34 q-20 -58 -57.5 -90.5 q-37.5 -32.5 -86.5 -32.5 q-43 0 -79.5 28 q-36.5 28 -57.5 77 q-22 -50 -57 -77.5 q-35 -27.5 -77 -27.5 q-68 0 -113 65 q-45 65 -45 164 q0 99 45 164 q45 65 113 65 q43 0 79 -28.5 q36 -28.5 58 -79.5 q21 50 56 79 q35 29 75 29 q67 0 107 -59.5 q40 -59.5 40 -152.5 l0 -23 l-248 0 q0 -77 29 -124.5 q29 -47.5 75 -47.5 q38 0 60 22.5 q22 22.5 39 83.5 ZM447 394 q-40 0 -66 -35.5 q-26 -35.5 -33 -98.5 l188 0 q-4 66 -26.5 100 q-22.5 34 -62.5 34 ZM179 394 q-44 0 -71.5 -49 q-27.5 -49 -27.5 -128 q0 -79 27.5 -128 q27.5 -49 71.5 -49 q47 0 74.5 48 q27.5 48 27.5 129 q0 81 -27.5 129 q-27.5 48 -74.5 48 Z" /><glyph glyph-name="Scedilla" unicode="&#x15e;" d="M432 -126 q0 -38 -29.5 -60.5 q-29.5 -22.5 -76.5 -22.5 q-31 0 -61 12 q-30 12 -52 32 l21 39 q22 -20 44 -29.5 q22 -9.5 46 -9.5 q24 0 37.5 9 q13.5 9 13.5 26 q0 27 -29.5 35 q-29.5 8 -58.5 -7 l-27 14 l46 76 q-85 2 -154 44.5 q-69 42.5 -93 108.5 l42 51 q25 -69 83.5 -109.5 q58.5 -40.5 131.5 -40.5 q74 0 118.5 33 q44.5 33 44.5 91 q0 43 -27 68.5 q-27 25.5 -92 41.5 l-124 30 q-73 17 -110 57.5 q-37 40.5 -37 103.5 q0 77 56.5 126 q56.5 49 144.5 49 q78 0 138 -34 q60 -34 88 -92 l-44 -49 q-21 55 -70.5 88 q-49.5 33 -111.5 33 q-67 0 -104 -32 q-37 -32 -37 -89 q0 -42 27 -66.5 q27 -24.5 97 -41.5 l106 -25 q84 -20 121.5 -60.5 q37.5 -40.5 37.5 -107.5 q0 -72 -51 -119.5 q-51 -47.5 -136 -56.5 l-31 -50 q43 10 77.5 -9 q34.5 -19 34.5 -57 Z" /><glyph glyph-name="scedilla" unicode="&#x15f;" d="M405 -126 q0 -38 -29.5 -60.5 q-29.5 -22.5 -76.5 -22.5 q-31 0 -61 12 q-30 12 -52 32 l21 39 q22 -20 44 -29.5 q22 -9.5 46 -9.5 q24 0 37.5 9 q13.5 9 13.5 26 q0 27 -29.5 35 q-29.5 8 -58.5 -7 l-27 14 l47 77 q-63 6 -112 32.5 q-49 26.5 -73 66.5 l34 53 q23 -46 72 -73 q49 -27 108 -27 q60 0 91.5 18.5 q31.5 18.5 31.5 53.5 q0 25 -18.5 41 q-18.5 16 -60.5 26 l-107 25 q-65 15 -94 43.5 q-29 28.5 -29 73.5 q0 55 48 89.5 q48 34.5 122 34.5 q63 0 112.5 -24 q49.5 -24 72.5 -66 l-45 -41 q-16 35 -54.5 56.5 q-38.5 21.5 -85.5 21.5 q-48 0 -79 -18.5 q-31 -18.5 -31 -47.5 q0 -26 19 -42.5 q19 -16.5 63 -26.5 l116 -27 q56 -13 84 -42.5 q28 -29.5 28 -73.5 q0 -55 -47 -89.5 q-47 -34.5 -123 -37.5 l-30 -48 q43 10 77.5 -9 q34.5 -19 34.5 -57 Z" /><glyph glyph-name="Tcommaaccent" unicode="&#x162;" d="M403 -126 q0 -38 -29.5 -60.5 q-29.5 -22.5 -76.5 -22.5 q-31 0 -61 12 q-30 12 -52 32 l21 39 q22 -20 44 -29.5 q22 -9.5 46 -9.5 q24 0 37.5 9 q13.5 9 13.5 26 q0 27 -29.5 35 q-29.5 8 -58.5 -7 l-27 14 l53 88 l-11 0 l0 575 l-232 0 l0 55 l532 0 l0 -55 l-235 0 l0 -575 l-10 0 l-37 -60 q43 10 77.5 -9 q34.5 -19 34.5 -57 Z" /><glyph glyph-name="tcommaaccent" unicode="&#x163;" d="M458 -126 q0 -38 -29.5 -60.5 q-29.5 -22.5 -76.5 -22.5 q-31 0 -61 12 q-30 12 -52 32 l21 39 q22 -20 44 -29.5 q22 -9.5 46 -9.5 q24 0 37.5 9 q13.5 9 13.5 26 q0 27 -29.5 35 q-29.5 8 -58.5 -7 l-27 14 l49 80 q-68 13 -107.5 60.5 q-39.5 47.5 -39.5 119.5 l0 193 l-148 0 l0 49 l148 0 l0 146 l60 23 l0 -169 l258 0 l0 -49 l-258 0 l0 -188 q0 -61 37 -97.5 q37 -36.5 94 -36.5 q52 0 90.5 29 q38.5 29 61.5 85 l32 -50 q-17 -50 -70.5 -84.5 q-53.5 -34.5 -116.5 -34.5 l-30 -48 q43 10 77.5 -9 q34.5 -19 34.5 -57 Z" /><glyph glyph-name="Tbar" unicode="&#x166;" d="M478 369 l0 -51 l-140 0 l0 -318 l-65 0 l0 318 l-140 0 l0 51 l140 0 l0 206 l-232 0 l0 55 l532 0 l0 -55 l-235 0 l0 -206 l140 0 Z" /><glyph glyph-name="tbar" unicode="&#x167;" d="M531 157 l32 -50 q-16 -49 -69.5 -84 q-53.5 -35 -114.5 -35 q-85 0 -138 50 q-53 50 -53 134 l0 62 l-147 0 l0 49 l147 0 l0 82 l-148 0 l0 49 l148 0 l0 146 l60 23 l0 -169 l258 0 l0 -49 l-258 0 l0 -82 l256 0 l0 -49 l-256 0 l0 -57 q0 -61 37 -97.5 q37 -36.5 94 -36.5 q52 0 90.5 29 q38.5 29 61.5 85 Z" /><glyph glyph-name="Uogonek" unicode="&#x172;" d="M349 -177 q-34 0 -55 18 q-21 18 -21 49 q0 24 14.5 47.5 q14.5 23.5 48.5 52.5 q-5 -1 -10.5 -1.5 q-5.5 -0.5 -17.5 -0.5 q-105 0 -167.5 70.5 q-62.5 70.5 -62.5 194.5 l0 377 l65 0 l0 -377 q0 -101 42.5 -154.5 q42.5 -53.5 122.5 -53.5 q80 0 123 54 q43 54 43 154 l0 377 l63 0 l0 -377 q0 -88 -32 -150 q-32 -62 -93 -92 q-50 -45 -66 -67 q-16 -22 -16 -42 q0 -15 10 -24 q10 -9 28 -9 q13 0 27 5 q14 5 28 15 l8 -37 q-15 -13 -37 -21 q-22 -8 -45 -8 Z" /><glyph glyph-name="uogonek" unicode="&#x173;" d="M493 -111 l8 -37 q-15 -13 -37 -21 q-22 -8 -45 -8 q-34 0 -55 18 q-21 18 -21 49 q0 27 17.5 52.5 q17.5 25.5 72.5 68.5 l0 81 q-17 -46 -60 -75 q-43 -29 -98 -29 q-78 0 -119 45.5 q-41 45.5 -41 131.5 l0 269 l61 0 l0 -265 q0 -60 30.5 -93.5 q30.5 -33.5 86.5 -33.5 q61 0 100.5 42.5 q39.5 42.5 39.5 108.5 l0 241 l61 0 l0 -434 l-24 0 q-41 -37 -55.5 -57.5 q-14.5 -20.5 -14.5 -40.5 q0 -15 10 -24 q10 -9 28 -9 q13 0 27 5 q14 5 28 15 Z" /><glyph glyph-name="florin" unicode="&#x192;" d="M150 -95 q-6 0 -13.5 1 q-7.5 1 -23.5 3 l0 48 q8 -2 14.5 -2.5 q6.5 -0.5 12.5 -0.5 q34 0 54.5 22 q20.5 22 30.5 70 l59 284 l-79 0 l0 46 l89 0 l27 131 q13 62 48.5 97 q35.5 35 87.5 35 q11 0 22 -1.5 q11 -1.5 23 -4.5 l0 -46 q-11 3 -20 4 q-9 1 -16 1 q-34 0 -55.5 -22.5 q-21.5 -22.5 -31.5 -68.5 l-26 -125 l105 0 l0 -46 l-115 0 l-60 -290 q-15 -71 -47 -103 q-32 -32 -86 -32 Z" /><glyph glyph-name="uni0237" unicode="&#x237;" d="M252 -182 q-63 0 -113 33 q-50 33 -66 83 l36 53 q25 -60 59 -87 q34 -27 84 -27 q55 0 89.5 36 q34.5 36 34.5 98 l0 379 l-216 0 l0 48 l277 0 l0 -432 q0 -84 -51 -134 q-51 -50 -134 -50 Z" /><glyph glyph-name="circumflex" unicode="&#x2c6;" d="M163 508 l104 163 l80 0 l104 -163 l-50 0 l-94 112 l-94 -112 l-50 0 Z" /><glyph glyph-name="caron" unicode="&#x2c7;" d="M347 507 l-80 0 l-104 163 l50 0 l94 -112 l94 112 l50 0 l-104 -163 Z" /><glyph glyph-name="breve" unicode="&#x2d8;" d="M307 504 q-64 0 -101 42.5 q-37 42.5 -37 112.5 l52 0 q0 -49 22 -75.5 q22 -26.5 64 -26.5 q42 0 64 26.5 q22 26.5 22 75.5 l51 0 q0 -70 -37 -112.5 q-37 -42.5 -100 -42.5 Z" /><glyph glyph-name="dotaccent" unicode="&#x2d9;" d="M355 549 l-97 0 l0 93 l97 0 l0 -93 Z" /><glyph glyph-name="ring" unicode="&#x2da;" d="M307 512 q-42 0 -69 26 q-27 26 -27 67 q0 40 27 66 q27 26 69 26 q42 0 69 -26 q27 -26 27 -66 q0 -40 -27 -66.5 q-27 -26.5 -69 -26.5 ZM307 655 q-24 0 -37.5 -13.5 q-13.5 -13.5 -13.5 -36.5 q0 -24 13.5 -37.5 q13.5 -13.5 37.5 -13.5 q24 0 37 13.5 q13 13.5 13 37.5 q0 23 -13.5 36.5 q-13.5 13.5 -36.5 13.5 Z" /><glyph glyph-name="ogonek" unicode="&#x2db;" d="M232 -110 q0 27 17.5 52.5 q17.5 25.5 73.5 69.5 l49 0 q-51 -46 -67 -68 q-16 -22 -16 -42 q0 -15 10 -24 q10 -9 28 -9 q13 0 27 5 q14 5 28 15 l8 -37 q-15 -13 -37 -21 q-22 -8 -45 -8 q-34 0 -55 18 q-21 18 -21 49 Z" /><glyph glyph-name="tilde" unicode="&#x2dc;" d="M245 600 q-17 0 -26 -17 q-9 -17 -11 -56 l-52 0 q0 60 23.5 96.5 q23.5 36.5 63.5 36.5 q16 0 31.5 -8.5 q15.5 -8.5 43.5 -33.5 q21 -21 32 -27 q11 -6 20 -6 q17 0 26 16.5 q9 16.5 11 55.5 l53 0 q0 -60 -23.5 -96.5 q-23.5 -36.5 -64.5 -36.5 q-15 0 -30.5 8 q-15.5 8 -42.5 34 q-22 21 -33 27.5 q-11 6.5 -21 6.5 Z" /><glyph glyph-name="hungarumlaut" unicode="&#x2dd;" d="M363 516 l-43 0 l56 162 l88 0 l-101 -162 ZM193 516 l-43 0 l56 162 l88 0 l-101 -162 Z" /><glyph glyph-name="endash" unicode="&#x2013;" d="M497 225 l-380 0 l0 58 l380 0 l0 -58 Z" /><glyph glyph-name="emdash" unicode="&#x2014;" d="M604 225 l-594 0 l0 58 l594 0 l0 -58 Z" /><glyph glyph-name="quoteleft" unicode="&#x2018;" d="M301 499 l49 0 l0 -95 l-101 0 l0 104 q0 64 37 99 q37 35 106 35 l0 -51 q-47 0 -69 -20.5 q-22 -20.5 -22 -62.5 l0 -9 Z" /><glyph glyph-name="quoteright" unicode="&#x2019;" d="M313 535 l-49 0 l0 95 l101 0 l0 -104 q0 -64 -37 -99 q-37 -35 -106 -35 l0 51 q47 0 69 20.5 q22 20.5 22 62.5 l0 9 Z" /><glyph glyph-name="quotesinglbase" unicode="&#x201a;" d="M313 18 l-49 0 l0 95 l101 0 l0 -104 q0 -64 -37 -99 q-37 -35 -106 -35 l0 51 q47 0 69 20.5 q22 20.5 22 62.5 l0 9 Z" /><glyph glyph-name="dagger" unicode="&#x2020;" d="M439 540 l0 -47 l-108 0 l0 -241 l-49 0 l0 241 l-108 0 l0 47 l108 0 l0 102 l49 0 l0 -102 l108 0 Z" /><glyph glyph-name="daggerdbl" unicode="&#x2021;" d="M332 252 l-49 0 l0 102 l-108 0 l0 47 l108 0 l0 92 l-108 0 l0 47 l108 0 l0 102 l49 0 l0 -102 l108 0 l0 -47 l-108 0 l0 -92 l108 0 l0 -47 l-108 0 l0 -102 Z" /><glyph glyph-name="bullet" unicode="&#x2022;" d="M306 363 q46 0 77 -31 q31 -31 31 -77 q0 -46 -31 -76.5 q-31 -30.5 -77 -30.5 q-46 0 -76.5 30.5 q-30.5 30.5 -30.5 76.5 q0 46 31 77 q31 31 76 31 Z" /><glyph glyph-name="ellipsis" unicode="&#x2026;" d="M554 0 l-98 0 l0 98 l98 0 l0 -98 ZM356 0 l-98 0 l0 98 l98 0 l0 -98 ZM158 0 l-98 0 l0 98 l98 0 l0 -98 Z" /><glyph glyph-name="perthousand" unicode="&#x2030;" d="M241 513 q0 -54 -35.5 -92 q-35.5 -38 -84.5 -38 q-49 0 -84.5 38 q-35.5 38 -35.5 92 q0 54 35.5 92 q35.5 38 84.5 38 q49 0 84.5 -38 q35.5 -38 35.5 -92 ZM331 119 q0 -54 -35.5 -92 q-35.5 -38 -84.5 -38 q-49 0 -84.5 38 q-35.5 38 -35.5 92 q0 54 35.5 92 q35.5 38 84.5 38 q49 0 84.5 -38 q35.5 -38 35.5 -92 ZM19 236 l-13 32 l482 188 l13 -32 l-482 -188 ZM614 119 q0 -54 -35.5 -92 q-35.5 -38 -84.5 -38 q-49 0 -84.5 38 q-35.5 38 -35.5 92 q0 54 35.5 92 q35.5 38 84.5 38 q49 0 84.5 -38 q35.5 -38 35.5 -92 ZM50 513 q0 -40 19.5 -64.5 q19.5 -24.5 51.5 -24.5 q32 0 51.5 24.5 q19.5 24.5 19.5 64.5 q0 40 -19.5 64.5 q-19.5 24.5 -51.5 24.5 q-32 0 -51.5 -24.5 q-19.5 -24.5 -19.5 -64.5 ZM423 119 q0 -40 19.5 -64.5 q19.5 -24.5 51.5 -24.5 q32 0 51.5 24.5 q19.5 24.5 19.5 64.5 q0 40 -19.5 64.5 q-19.5 24.5 -51.5 24.5 q-32 0 -51.5 -24.5 q-19.5 -24.5 -19.5 -64.5 ZM140 119 q0 -40 19.5 -64.5 q19.5 -24.5 51.5 -24.5 q32 0 51.5 24.5 q19.5 24.5 19.5 64.5 q0 40 -19.5 64.5 q-19.5 24.5 -51.5 24.5 q-32 0 -51.5 -24.5 q-19.5 -24.5 -19.5 -64.5 Z" /><glyph glyph-name="guilsinglleft" unicode="&#x2039;" d="M394 24 l-176 163 l0 58 l176 163 l0 -77 l-118 -115 l118 -115 l0 -77 Z" /><glyph glyph-name="guilsinglright" unicode="&#x203a;" d="M220 408 l176 -163 l0 -58 l-176 -163 l0 77 l118 115 l-118 115 l0 77 Z" /><glyph glyph-name="fraction" unicode="&#x2044;" d="M68 0 l-68 0 l546 630 l68 0 l-546 -630 Z" /><glyph glyph-name="uni2070" unicode="&#x2070;" d="M308 638 q63 0 100 -46 q37 -46 37 -126 q0 -80 -37 -125.5 q-37 -45.5 -100 -45.5 q-64 0 -101 45.5 q-37 45.5 -37 125.5 q0 80 37 126 q37 46 101 46 ZM308 338 q39 0 60 32.5 q21 32.5 21 95.5 q0 63 -21 95.5 q-21 32.5 -60 32.5 q-40 0 -61 -32.5 q-21 -32.5 -21 -95.5 q0 -63 21 -95.5 q21 -32.5 61 -32.5 Z" /><glyph glyph-name="uni2074" unicode="&#x2074;" d="M323 631 l65 0 l0 -201 l57 0 l0 -44 l-57 0 l0 -85 l-53 0 l0 85 l-166 0 l0 50 l154 195 ZM335 430 l0 154 l-120 -154 l120 0 Z" /><glyph glyph-name="uni2075" unicode="&#x2075;" d="M310 295 q-55 0 -90.5 28.5 q-35.5 28.5 -39.5 76.5 l53 9 q2 -33 22.5 -52.5 q20.5 -19.5 55.5 -19.5 q32 0 52 20 q20 20 20 53 q0 32 -19.5 51.5 q-19.5 19.5 -51.5 19.5 q-21 0 -38.5 -9 q-17.5 -9 -27.5 -24 l-51 8 q7 41 13 91.5 q6 50.5 7 83.5 l200 0 q3 -25 -7.5 -37 q-10.5 -12 -34.5 -12 q-15 0 -48.5 2.5 q-33.5 2.5 -69.5 5.5 q-1 -18 -5 -54.5 q-4 -36.5 -7 -48.5 q13 16 34 25.5 q21 9.5 45 9.5 q50 0 81 -31 q31 -31 31 -80 q0 -51 -34.5 -83.5 q-34.5 -32.5 -89.5 -32.5 Z" /><glyph glyph-name="uni2076" unicode="&#x2076;" d="M320 638 q45 0 75 -22 q30 -22 39 -61 l-49 -12 q-6 26 -22.5 39 q-16.5 13 -43.5 13 q-45 0 -69 -38.5 q-24 -38.5 -22 -105.5 q10 31 35.5 48 q25.5 17 61.5 17 q50 0 81 -30 q31 -30 31 -79 q0 -51 -33.5 -81.5 q-33.5 -30.5 -88.5 -30.5 q-65 0 -100.5 43.5 q-35.5 43.5 -35.5 122.5 q0 82 37.5 129.5 q37.5 47.5 103.5 47.5 ZM313 476 q-33 0 -52.5 -19 q-19.5 -19 -19.5 -50 q0 -31 20 -50.5 q20 -19.5 53 -19.5 q33 0 52.5 19 q19.5 19 19.5 51 q0 32 -19.5 50.5 q-19.5 18.5 -53.5 18.5 Z" /><glyph glyph-name="uni2077" unicode="&#x2077;" d="M373 583 l-194 0 l0 48 l253 0 l0 -36 q-55 -57 -82 -128 q-27 -71 -28 -166 l-58 0 q1 83 29 155 q28 72 80 127 Z" /><glyph glyph-name="uni2078" unicode="&#x2078;" d="M436 389 q0 -44 -34 -69 q-34 -25 -94 -25 q-60 0 -94.5 25 q-34.5 25 -34.5 69 q0 29 20.5 51.5 q20.5 22.5 50.5 28.5 q-28 10 -43.5 30 q-15.5 20 -15.5 47 q0 42 32.5 67 q32.5 25 84.5 25 q52 0 84.5 -25.5 q32.5 -25.5 32.5 -66.5 q0 -27 -15.5 -47 q-15.5 -20 -44.5 -30 q30 -6 50.5 -28.5 q20.5 -22.5 20.5 -51.5 ZM244 541 q0 -25 17.5 -39.5 q17.5 -14.5 46.5 -14.5 q29 0 46 14.5 q17 14.5 17 39.5 q0 27 -17 42 q-17 15 -46 15 q-30 0 -47 -15 q-17 -15 -17 -42 ZM235 392 q0 -27 19 -42 q19 -15 54 -15 q34 0 53 15 q19 15 19 42 q0 27 -18.5 41.5 q-18.5 14.5 -53.5 14.5 q-36 0 -54.5 -14.5 q-18.5 -14.5 -18.5 -41.5 Z" /><glyph glyph-name="uni2079" unicode="&#x2079;" d="M303 457 q33 0 52.5 18.5 q19.5 18.5 19.5 50.5 q0 31 -20.5 50 q-20.5 19 -53.5 19 q-32 0 -51.5 -19 q-19.5 -19 -19.5 -50 q0 -32 19.5 -50.5 q19.5 -18.5 53.5 -18.5 ZM296 295 q-45 0 -75 21.5 q-30 21.5 -39 60.5 l49 13 q6 -26 22.5 -39.5 q16.5 -13.5 43.5 -13.5 q45 0 68.5 38.5 q23.5 38.5 21.5 105.5 q-9 -30 -34.5 -47.5 q-25.5 -17.5 -62.5 -17.5 q-49 0 -80 30.5 q-31 30.5 -31 78.5 q0 51 33.5 82 q33.5 31 88.5 31 q65 0 100.5 -44 q35.5 -44 35.5 -122 q0 -82 -37.5 -129.5 q-37.5 -47.5 -103.5 -47.5 Z" /><glyph glyph-name="Euro" unicode="&#x20ac;" d="M524 211 l59 -27 q-24 -97 -81.5 -146.5 q-57.5 -49.5 -147.5 -49.5 q-98 0 -165.5 64 q-67.5 64 -87.5 176 l-69 0 l0 47 l63 0 q0 3 0 7 q0 4 0 12 q-1 9 -1 13 q0 4 0 8 q0 16 0 23.5 q0 7.5 1 13.5 l-63 0 l0 47 l69 0 q19 113 86.5 178 q67.5 65 166.5 65 q87 0 144 -46.5 q57 -46.5 82 -137.5 l-57 -35 q-15 83 -57.5 124.5 q-42.5 41.5 -111.5 41.5 q-76 0 -125 -49.5 q-49 -49.5 -65 -140.5 l208 0 l-10 -47 l-204 0 q-1 -6 -1 -13.5 q0 -7.5 0 -23.5 q0 -17 0 -25 q0 -8 1 -15 l193 0 l-10 -47 l-177 0 q16 -90 65 -138.5 q49 -48.5 125 -48.5 q71 0 113 41.5 q42 41.5 57 128.5 Z" /><glyph glyph-name="trademark" unicode="&#x2122;" d="M163 586 l0 -242 l-52 0 l0 242 l-81 0 l0 44 l216 0 l0 -44 l-83 0 ZM511 584 l-66 -240 l-44 0 l-67 240 l-2 0 l0 -240 l-48 0 l0 286 l82 0 l58 -221 l3 0 l58 221 l79 0 l0 -286 l-51 0 l0 240 l-2 0 Z" /><glyph glyph-name="uni2153" unicode="&#x2153;" d="M280 345 l0 -44 l-249 0 l0 44 l101 0 l0 199 l-90 0 l0 40 l27 0 q40 0 56 9.5 q16 9.5 24 39.5 l37 0 l0 -288 l94 0 ZM624 630 l-235 -251 l-17 20 l173 231 l79 0 ZM-10 0 l235 251 l17 -20 l-173 -231 l-79 0 ZM464 293 q-32 0 -51 -19 q-19 -19 -20 -53 l-51 14 q5 46 38.5 74 q33.5 28 84.5 28 q53 0 84 -25.5 q31 -25.5 31 -68.5 q0 -29 -20 -50.5 q-20 -21.5 -49 -25.5 q33 -3 54.5 -25 q21.5 -22 21.5 -54 q0 -42 -33.5 -68 q-33.5 -26 -88.5 -26 q-56 0 -91 26.5 q-35 26.5 -40 73.5 l51 14 q2 -33 23.5 -52 q21.5 -19 57.5 -19 q30 0 48 14.5 q18 14.5 18 40.5 q0 24 -19 38.5 q-19 14.5 -51 14.5 q-9 0 -16.5 -0.5 q-7.5 -0.5 -13.5 -2.5 l0 46 q8 -1 15 -1.5 q7 -0.5 16 -0.5 q31 0 48 13.5 q17 13.5 17 38.5 q0 26 -17 40.5 q-17 14.5 -47 14.5 Z" /><glyph glyph-name="uni2154" unicode="&#x2154;" d="M171 394 l-58 -47 l163 0 l0 -46 l-245 0 l0 33 l94 79 q54 46 70 70 q16 24 16 50 q0 28 -16 43.5 q-16 15.5 -45 15.5 q-30 0 -47 -18.5 q-17 -18.5 -17 -51.5 q0 -8 1 -15 q1 -7 4 -15 l-53 2 q-3 10 -4 17 q-1 7 -1 14 q0 51 32 82 q32 31 86 31 q54 0 85 -27.5 q31 -27.5 31 -74.5 q0 -32 -19 -62.5 q-19 -30.5 -77 -79.5 ZM624 630 l-235 -251 l-17 20 l173 231 l79 0 ZM-10 0 l235 251 l17 -20 l-173 -231 l-79 0 ZM464 293 q-32 0 -51 -19 q-19 -19 -20 -53 l-51 14 q5 46 38.5 74 q33.5 28 84.5 28 q53 0 84 -25.5 q31 -25.5 31 -68.5 q0 -29 -20 -50.5 q-20 -21.5 -49 -25.5 q33 -3 54.5 -25 q21.5 -22 21.5 -54 q0 -42 -33.5 -68 q-33.5 -26 -88.5 -26 q-56 0 -91 26.5 q-35 26.5 -40 73.5 l51 14 q2 -33 23.5 -52 q21.5 -19 57.5 -19 q30 0 48 14.5 q18 14.5 18 40.5 q0 24 -19 38.5 q-19 14.5 -51 14.5 q-9 0 -16.5 -0.5 q-7.5 -0.5 -13.5 -2.5 l0 46 q8 -1 15 -1.5 q7 -0.5 16 -0.5 q31 0 48 13.5 q17 13.5 17 38.5 q0 26 -17 40.5 q-17 14.5 -47 14.5 Z" /><glyph glyph-name="uni215B" unicode="&#x215b;" d="M280 345 l0 -44 l-249 0 l0 44 l101 0 l0 199 l-90 0 l0 40 l27 0 q40 0 56 9.5 q16 9.5 24 39.5 l37 0 l0 -288 l94 0 ZM624 630 l-235 -251 l-17 20 l173 231 l79 0 ZM588 88 q0 -44 -34 -69 q-34 -25 -94 -25 q-60 0 -94.5 25 q-34.5 25 -34.5 69 q0 29 20.5 51.5 q20.5 22.5 50.5 28.5 q-28 10 -43.5 30 q-15.5 20 -15.5 47 q0 42 32.5 67 q32.5 25 84.5 25 q52 0 84.5 -25.5 q32.5 -25.5 32.5 -66.5 q0 -27 -15.5 -47 q-15.5 -20 -44.5 -30 q30 -6 50.5 -28.5 q20.5 -22.5 20.5 -51.5 ZM396 240 q0 -25 17.5 -39.5 q17.5 -14.5 46.5 -14.5 q29 0 46 14.5 q17 14.5 17 39.5 q0 27 -17 42 q-17 15 -46 15 q-30 0 -47 -15 q-17 -15 -17 -42 ZM-10 0 l235 251 l17 -20 l-173 -231 l-79 0 ZM387 91 q0 -27 19 -42 q19 -15 54 -15 q34 0 53 15 q19 15 19 42 q0 27 -18.5 41.5 q-18.5 14.5 -53.5 14.5 q-36 0 -54.5 -14.5 q-18.5 -14.5 -18.5 -41.5 Z" /><glyph glyph-name="uni215C" unicode="&#x215c;" d="M624 630 l-235 -251 l-17 20 l173 231 l79 0 ZM167 594 q-32 0 -51 -19 q-19 -19 -20 -53 l-51 14 q5 46 38.5 74 q33.5 28 84.5 28 q53 0 84 -25.5 q31 -25.5 31 -68.5 q0 -29 -20 -50.5 q-20 -21.5 -49 -25.5 q33 -3 54.5 -25 q21.5 -22 21.5 -54 q0 -42 -33.5 -68 q-33.5 -26 -88.5 -26 q-56 0 -91 26.5 q-35 26.5 -40 73.5 l51 14 q2 -33 23.5 -52 q21.5 -19 57.5 -19 q30 0 48 14.5 q18 14.5 18 40.5 q0 24 -19 38.5 q-19 14.5 -51 14.5 q-9 0 -16.5 -0.5 q-7.5 -0.5 -13.5 -2.5 l0 46 q8 -1 15 -1.5 q7 -0.5 16 -0.5 q31 0 48 13.5 q17 13.5 17 38.5 q0 26 -17 40.5 q-17 14.5 -47 14.5 ZM588 88 q0 -44 -34 -69 q-34 -25 -94 -25 q-60 0 -94.5 25 q-34.5 25 -34.5 69 q0 29 20.5 51.5 q20.5 22.5 50.5 28.5 q-28 10 -43.5 30 q-15.5 20 -15.5 47 q0 42 32.5 67 q32.5 25 84.5 25 q52 0 84.5 -25.5 q32.5 -25.5 32.5 -66.5 q0 -27 -15.5 -47 q-15.5 -20 -44.5 -30 q30 -6 50.5 -28.5 q20.5 -22.5 20.5 -51.5 ZM396 240 q0 -25 17.5 -39.5 q17.5 -14.5 46.5 -14.5 q29 0 46 14.5 q17 14.5 17 39.5 q0 27 -17 42 q-17 15 -46 15 q-30 0 -47 -15 q-17 -15 -17 -42 ZM-10 0 l235 251 l17 -20 l-173 -231 l-79 0 ZM387 91 q0 -27 19 -42 q19 -15 54 -15 q34 0 53 15 q19 15 19 42 q0 27 -18.5 41.5 q-18.5 14.5 -53.5 14.5 q-36 0 -54.5 -14.5 q-18.5 -14.5 -18.5 -41.5 Z" /><glyph glyph-name="uni215D" unicode="&#x215d;" d="M624 630 l-235 -251 l-17 20 l173 231 l79 0 ZM160 295 q-55 0 -90.5 28.5 q-35.5 28.5 -39.5 76.5 l53 9 q2 -33 22.5 -52.5 q20.5 -19.5 55.5 -19.5 q32 0 52 20 q20 20 20 53 q0 32 -19.5 51.5 q-19.5 19.5 -51.5 19.5 q-21 0 -38.5 -9 q-17.5 -9 -27.5 -24 l-51 8 q7 41 13 91.5 q6 50.5 7 83.5 l200 0 q3 -25 -7.5 -37 q-10.5 -12 -34.5 -12 q-15 0 -48.5 2.5 q-33.5 2.5 -69.5 5.5 q-1 -18 -5 -54.5 q-4 -36.5 -7 -48.5 q13 16 34 25.5 q21 9.5 45 9.5 q50 0 81 -31 q31 -31 31 -80 q0 -51 -34.5 -83.5 q-34.5 -32.5 -89.5 -32.5 ZM588 88 q0 -44 -34 -69 q-34 -25 -94 -25 q-60 0 -94.5 25 q-34.5 25 -34.5 69 q0 29 20.5 51.5 q20.5 22.5 50.5 28.5 q-28 10 -43.5 30 q-15.5 20 -15.5 47 q0 42 32.5 67 q32.5 25 84.5 25 q52 0 84.5 -25.5 q32.5 -25.5 32.5 -66.5 q0 -27 -15.5 -47 q-15.5 -20 -44.5 -30 q30 -6 50.5 -28.5 q20.5 -22.5 20.5 -51.5 ZM396 240 q0 -25 17.5 -39.5 q17.5 -14.5 46.5 -14.5 q29 0 46 14.5 q17 14.5 17 39.5 q0 27 -17 42 q-17 15 -46 15 q-30 0 -47 -15 q-17 -15 -17 -42 ZM-10 0 l235 251 l17 -20 l-173 -231 l-79 0 ZM387 91 q0 -27 19 -42 q19 -15 54 -15 q34 0 53 15 q19 15 19 42 q0 27 -18.5 41.5 q-18.5 14.5 -53.5 14.5 q-36 0 -54.5 -14.5 q-18.5 -14.5 -18.5 -41.5 Z" /><glyph glyph-name="uni215E" unicode="&#x215e;" d="M236 583 l-194 0 l0 48 l253 0 l0 -36 q-55 -57 -82 -128 q-27 -71 -28 -166 l-58 0 q1 83 29 155 q28 72 80 127 ZM624 630 l-235 -251 l-17 20 l173 231 l79 0 ZM588 88 q0 -44 -34 -69 q-34 -25 -94 -25 q-60 0 -94.5 25 q-34.5 25 -34.5 69 q0 29 20.5 51.5 q20.5 22.5 50.5 28.5 q-28 10 -43.5 30 q-15.5 20 -15.5 47 q0 42 32.5 67 q32.5 25 84.5 25 q52 0 84.5 -25.5 q32.5 -25.5 32.5 -66.5 q0 -27 -15.5 -47 q-15.5 -20 -44.5 -30 q30 -6 50.5 -28.5 q20.5 -22.5 20.5 -51.5 ZM396 240 q0 -25 17.5 -39.5 q17.5 -14.5 46.5 -14.5 q29 0 46 14.5 q17 14.5 17 39.5 q0 27 -17 42 q-17 15 -46 15 q-30 0 -47 -15 q-17 -15 -17 -42 ZM-10 0 l235 251 l17 -20 l-173 -231 l-79 0 ZM387 91 q0 -27 19 -42 q19 -15 54 -15 q34 0 53 15 q19 15 19 42 q0 27 -18.5 41.5 q-18.5 14.5 -53.5 14.5 q-36 0 -54.5 -14.5 q-18.5 -14.5 -18.5 -41.5 Z" /><glyph glyph-name="minus" unicode="&#x2212;" d="M560 286 l-506 0 l0 52 l506 0 l0 -52 Z" /><glyph glyph-name="approxequal" unicode="&#x2248;" d="M190 374 q-34 0 -68 -11 q-34 -11 -69 -34 l0 54 q36 23 70 34.5 q34 11.5 67 11.5 q23 0 47 -4 q24 -4 69 -18 q44 -14 68 -18 q24 -4 47 -4 q35 0 69.5 11.5 q34.5 11.5 69.5 33.5 l0 -54 q-34 -23 -69 -34.5 q-35 -11.5 -70 -11.5 q-23 0 -47 4 q-24 4 -68 18 q-45 14 -69 18 q-24 4 -47 4 ZM190 239 q-33 0 -67 -11.5 q-34 -11.5 -70 -34.5 l0 55 q35 23 69 34 q34 11 68 11 q23 0 47 -4 q24 -4 69 -18 q44 -14 68 -18 q24 -4 47 -4 q35 0 69.5 11.5 q34.5 11.5 69.5 33.5 l0 -54 q-35 -22 -69.5 -33.5 q-34.5 -11.5 -69.5 -11.5 q-23 0 -47 4 q-24 4 -68 18 q-45 14 -69 18 q-24 4 -47 4 Z" /><glyph glyph-name="notequal" unicode="&#x2260;" d="M560 264 l0 -53 l-303 0 l-99 -124 l-61 0 l99 124 l-143 0 l0 53 l185 0 l73 92 l-258 0 l0 53 l301 0 l101 127 l61 0 l-101 -127 l145 0 l0 -53 l-188 0 l-73 -92 l261 0 Z" /><glyph glyph-name="lessequal" unicode="&#x2264;" d="M500 156 l-387 191 l0 54 l387 190 l0 -56 l-329 -161 l329 -162 l0 -56 ZM500 46 l-387 0 l0 52 l387 0 l0 -52 Z" /><glyph glyph-name="greaterequal" unicode="&#x2265;" d="M113 591 l387 -190 l0 -54 l-387 -191 l0 56 l329 162 l-329 161 l0 56 ZM113 98 l387 0 l0 -52 l-387 0 l0 52 Z" /><glyph glyph-name="commaaccent" unicode="&#xf6c3;" d="M302 -130 l-43 0 l0 75 l97 0 l0 -73 q0 -52 -31 -81.5 q-31 -29.5 -84 -29.5 l0 42 q31 0 46 16.5 q15 16.5 15 50.5 Z" /></font>
</defs>
</svg>
